<svg width="70" height="70" viewBox="0 0 70 70" fill="none" xmlns="http://www.w3.org/2000/svg">
<rect width="70" height="70" rx="12" fill="white"/>
<path d="M50 45C49.4 45 49 44.6 49 44V31C49 30.4 49.4 30 50 30C50.6 30 51 30.4 51 31V44C51 44.6 50.6 45 50 45Z" fill="#E31E24"/>
<path d="M35 40C34.8 40 34.7 40 34.5 39.9L19.5 31.9C19.2 31.7 19 31.4 19 31C19 30.6 19.2 30.3 19.5 30.1L34.5 22.1C34.8 21.9 35.1 21.9 35.4 22.1L50.4 30.1C50.7 30.3 50.9 30.6 50.9 31C50.9 31.4 50.7 31.7 50.4 31.9L35.4 39.9C35.3 40 35.2 40 35 40Z" fill="#E31E24"/>
<path d="M36.4 41.6C36 41.9 35.5 42 35 42C34.5 42 34 41.9 33.6 41.6L25 37.1V41C25 44.1 29.9 47 35 47C40.1 47 45 44.1 45 41V37.1L36.4 41.6Z" fill="#E31E24"/>
</svg>
