<svg width="70" height="70" viewBox="0 0 70 70" fill="none" xmlns="http://www.w3.org/2000/svg">
<rect width="70" height="70" rx="12" fill="white"/>
<g clip-path="url(#clip0_270_1855)">
<path d="M27.7632 32.8768H21.3169C20.5063 32.8768 19.9273 33.5157 20.0045 34.305L19.8887 46.7076C19.8887 46.7452 19.8887 46.7828 19.8887 46.8204C20.0045 47.6472 20.7765 48.3237 21.6257 48.3237H29.8863C30.6969 48.3237 31.2759 47.7224 31.1987 46.9331L29.4231 34.0043C29.4231 34.0043 29.4231 34.0043 29.3844 34.0043C29.1528 33.3654 28.4966 32.8768 27.7632 32.8768Z" fill="#E31E24"/>
<path d="M50.3056 38.2513C50.2284 37.3117 49.7266 36.6351 49.109 36.1466C49.5722 35.8083 49.881 35.3197 49.9196 34.7184C49.9968 33.8915 49.7652 32.6513 48.916 31.7117C48.4914 31.2607 47.6808 30.6969 46.4069 30.6969H40.5396C40.5396 29.87 40.5396 28.5546 40.5782 27.4271C40.6554 25.7734 39.729 23.7439 38.764 22.6539C38.2622 22.0902 37.7604 21.7895 37.2586 21.7143C37.1042 21.6768 36.9498 21.6768 36.7568 21.6768C35.6759 21.6768 34.4021 22.0902 34.1319 23.0298C34.0161 23.4432 34.1319 23.8566 34.2477 24.3076C34.4021 24.909 34.5565 25.6607 34.4021 26.6754C34.0933 28.4419 31.3527 32.6888 30.4648 33.4781L32.3177 46.7452C33.5143 47.1962 36.3322 48.211 37.799 48.211H45.1717C45.6735 48.211 47.3334 48.0982 47.8352 46.7452C48.0668 46.0687 47.9896 45.4674 47.758 44.9412C47.758 44.9036 47.758 44.8284 47.758 44.8284V44.7909C48.6844 44.5653 49.2634 43.964 49.4178 43.062C49.6108 42.0096 49.2634 41.258 48.9546 40.807C49.9196 40.3184 50.4214 39.4164 50.3056 38.2513Z" fill="#E31E24"/>
</g>
<defs>
<clipPath id="clip0_270_1855">
<rect width="32" height="28" fill="white" transform="translate(19 21)"/>
</clipPath>
</defs>
</svg>
