<svg width="70" height="70" viewBox="0 0 70 70" fill="none" xmlns="http://www.w3.org/2000/svg">
<rect width="70" height="70" rx="12" fill="white"/>
<path d="M30.0044 24.0217C30.7656 24.0448 31.5027 24.1777 32.2168 24.4206H32.2881C32.3365 24.4436 32.3727 24.4689 32.3969 24.4919C32.6639 24.5777 32.9165 24.6744 33.1581 24.8073L33.6173 25.0127C33.7985 25.1094 34.016 25.2894 34.1369 25.3631C34.2577 25.4344 34.3906 25.5081 34.4994 25.5915C35.8418 24.5656 37.4719 24.0098 39.1515 24.0217C39.9139 24.0217 40.6752 24.1294 41.399 24.3723C45.8589 25.8223 47.466 30.716 46.1235 34.9935C45.3623 37.1794 44.1177 39.1744 42.4877 40.8044C40.1544 43.064 37.5939 45.0698 34.8377 46.7977L34.5356 46.9802L34.2215 46.7857C31.4556 45.0698 28.8806 43.064 26.5256 40.7923C24.9064 39.1623 23.6606 37.1794 22.8873 34.9935C21.5219 30.716 23.129 25.8223 27.6372 24.3469C27.9877 24.2261 28.349 24.1415 28.7115 24.0944H28.8565C29.196 24.0448 29.5331 24.0217 29.8715 24.0217H30.0044ZM40.7706 27.8402C40.2752 27.6698 39.7315 27.9369 39.5502 28.4444C39.381 28.9519 39.6469 29.5077 40.1544 29.6877C40.9289 29.9777 41.4473 30.7402 41.4473 31.5848V31.6223C41.4243 31.899 41.5077 32.166 41.6769 32.3714C41.846 32.5769 42.0998 32.6965 42.3656 32.7219C42.861 32.7086 43.284 32.311 43.3202 31.8023V31.6585C43.3565 29.9657 42.3306 28.4323 40.7706 27.8402Z" fill="#E31E24"/>
</svg>
