<svg width="70" height="70" viewBox="0 0 70 70" fill="none" xmlns="http://www.w3.org/2000/svg">
<rect width="70" height="70" rx="12" fill="white"/>
<g clip-path="url(#clip0_270_1877)">
<path d="M34.9833 41.2195C35.4226 41.9546 36.0872 42.5285 36.8783 42.8562C37.6695 43.1839 38.5452 43.248 39.3757 43.0388C39.7481 42.9448 40.1047 42.7968 40.4342 42.5995C41.0017 42.2608 41.4761 41.7863 41.8148 41.2188C42.0122 40.8893 42.1602 40.5327 42.2542 40.1603C42.4642 39.3298 42.4005 38.4537 42.0726 37.6623C41.7447 36.8709 41.1701 36.2065 40.4342 35.7679C40.1047 35.5706 39.7481 35.4226 39.3757 35.3286C38.6131 35.1352 37.8103 35.1723 37.0689 35.4352C36.3274 35.6982 35.6806 36.1752 35.2104 36.8059C34.7401 37.4366 34.4676 38.1926 34.4271 38.9782C34.3867 39.7639 34.5803 40.5439 34.9833 41.2195Z" fill="#E31E24"/>
<path d="M49.6977 37.4091H48.9165C48.6507 35.8207 48.0267 34.3137 47.0918 33.0025L47.6446 32.4496C47.9767 32.1165 48.1629 31.6652 48.1626 31.1948C48.1622 30.7244 47.9752 30.2734 47.6426 29.9408C47.31 29.6083 46.859 29.4212 46.3886 29.4208C45.9182 29.4205 45.467 29.6067 45.1338 29.9388L44.581 30.4917C43.2703 29.5568 41.7636 28.9332 40.1757 28.6682V27.8858C40.1756 27.5263 40.0665 27.1753 39.8627 26.8793C39.6589 26.5832 39.37 26.3559 39.0343 26.2275C38.6985 26.0992 38.3317 26.0757 37.9823 26.1604C37.633 26.245 37.3175 26.4336 37.0777 26.7014C37.2983 27.0944 37.4137 27.5378 37.4125 27.9885C37.4117 28.5934 37.2044 29.1798 36.8248 29.6507C36.4452 30.1216 35.9161 30.4487 35.3252 30.5779C35.155 31.1411 34.9294 31.6861 34.6519 32.2049C34.7768 32.4 34.8757 32.6106 34.9461 32.8313C35.4758 32.5421 36.0399 32.321 36.625 32.1732C37.7905 31.8807 39.0102 31.8807 40.1757 32.1732C40.8529 32.3441 41.5014 32.6132 42.1006 32.972C43.4377 33.7707 44.4818 34.979 45.078 36.4179C45.6741 37.8567 45.7907 39.4494 45.4103 40.9597C45.2394 41.6369 44.9702 42.2854 44.6114 42.8846C43.9953 43.9166 43.1326 44.7794 42.1006 45.3955C41.5014 45.7543 40.8529 46.0234 40.1757 46.1943C38.8574 46.5282 37.4716 46.4837 36.1775 46.0657C34.8834 45.6478 33.7333 44.8735 32.8593 43.8316C31.9853 42.7897 31.4228 41.5225 31.2363 40.1754C31.0498 38.8283 31.2469 37.456 31.805 36.2158C31.5151 36.1471 31.2389 36.0296 30.9884 35.8684C30.4695 36.1448 29.9251 36.3703 29.3627 36.5417C29.2333 37.1324 28.906 37.6611 28.4351 38.0404C27.9643 38.4198 27.378 38.627 26.7733 38.6277C26.3461 38.6283 25.9252 38.5247 25.547 38.3259C25.398 38.5963 25.3221 38.9008 25.3266 39.2095C25.3312 39.5182 25.4161 39.8204 25.573 40.0863C25.73 40.3522 25.9535 40.5725 26.2216 40.7257C26.4896 40.8789 26.793 40.9595 27.1017 40.9597H27.8841C28.149 42.5479 28.7731 44.0547 29.7089 45.365L29.156 45.9179C28.9911 46.0827 28.8603 46.2783 28.7711 46.4936C28.6818 46.709 28.6359 46.9398 28.6358 47.1729C28.6357 47.406 28.6816 47.6368 28.7707 47.8522C28.8599 48.0675 28.9906 48.2632 29.1554 48.4281C29.3201 48.593 29.5158 48.7237 29.7311 48.813C29.9464 48.9023 30.1772 48.9482 30.4103 48.9483C30.6434 48.9483 30.8742 48.9025 31.0896 48.8133C31.305 48.7242 31.5007 48.5935 31.6656 48.4287L32.2184 47.8758C33.5297 48.8108 35.0366 49.4348 36.625 49.7006V50.4817C36.6256 50.9522 36.8129 51.4032 37.1458 51.7357C37.4786 52.0681 37.9299 52.2549 38.4003 52.2549C38.8708 52.2549 39.322 52.0681 39.6549 51.7357C39.9878 51.4032 40.1751 50.9522 40.1757 50.4817V49.6993C41.7636 49.4343 43.2703 48.8107 44.581 47.8758L45.1338 48.4287C45.4669 48.7611 45.9183 48.9477 46.3888 48.9474C46.8594 48.9472 47.3106 48.7602 47.6433 48.4274C47.9761 48.0947 48.1631 47.6435 48.1633 47.1729C48.1636 46.7024 47.977 46.251 47.6446 45.9179L47.0918 45.365C48.0266 44.0543 48.6502 42.5477 48.9152 40.9597H49.6977C49.931 40.96 50.1621 40.9143 50.3777 40.8252C50.5934 40.7361 50.7893 40.6054 50.9544 40.4405C51.1195 40.2756 51.2505 40.0798 51.3398 39.8643C51.4292 39.6487 51.4752 39.4177 51.4752 39.1844C51.4752 38.9511 51.4292 38.72 51.3398 38.5045C51.2505 38.289 51.1195 38.0932 50.9544 37.9283C50.7893 37.7634 50.5934 37.6327 50.3777 37.5436C50.1621 37.4545 49.931 37.4088 49.6977 37.4091Z" fill="#E31E24"/>
<path d="M25.5174 35.9774C25.5174 36.3103 25.6496 36.6297 25.8851 36.8651C26.1205 37.1005 26.4398 37.2328 26.7728 37.2328C27.1058 37.2328 27.4251 37.1005 27.6605 36.8651C27.896 36.6297 28.0282 36.3103 28.0282 35.9774V35.4241C29.1512 35.2367 30.2166 34.7957 31.1435 34.1346L31.5345 34.5256C31.6511 34.6421 31.7895 34.7346 31.9418 34.7977C32.0941 34.8608 32.2574 34.8933 32.4223 34.8933C32.5871 34.8933 32.7504 34.8608 32.9027 34.7977C33.055 34.7346 33.1935 34.6421 33.31 34.5256C33.4266 34.409 33.5191 34.2706 33.5822 34.1182C33.6453 33.9659 33.6778 33.8027 33.6778 33.6378C33.6778 33.4729 33.6453 33.3097 33.5822 33.1573C33.5191 33.005 33.4266 32.8666 33.31 32.75L32.919 32.359C33.5801 31.4322 34.0211 30.3667 34.2085 29.2438H34.7619C35.0948 29.2438 35.4142 29.1115 35.6496 28.876C35.885 28.6406 36.0173 28.3213 36.0173 27.9883C36.0173 27.6553 35.885 27.336 35.6496 27.1006C35.4142 26.8651 35.0948 26.7329 34.7619 26.7329H34.2094C34.0215 25.6096 33.5802 24.544 32.919 23.6167L33.31 23.2257C33.5452 22.9902 33.6773 22.671 33.6772 22.3381C33.6771 22.0053 33.5448 21.6861 33.3094 21.4508C33.0741 21.2154 32.7549 21.0831 32.4221 21.083C32.0892 21.0829 31.77 21.215 31.5345 21.4502L31.1435 21.8412C30.2166 21.1801 29.1512 20.739 28.0282 20.5516V19.9984C28.0282 19.6654 27.896 19.3461 27.6605 19.1106C27.4251 18.8752 27.1057 18.7429 26.7728 18.7429C26.4398 18.7429 26.1205 18.8752 25.8851 19.1106C25.6496 19.3461 25.5173 19.6654 25.5173 19.9984V20.5507C24.3941 20.7387 23.3284 21.18 22.4012 21.8412L22.0102 21.4502C21.8936 21.3337 21.7552 21.2412 21.6029 21.1782C21.4506 21.1152 21.2874 21.0827 21.1225 21.0828C20.9577 21.0828 20.7945 21.1153 20.6422 21.1785C20.49 21.2416 20.3516 21.3341 20.2351 21.4506C20.1186 21.5672 20.0261 21.7056 19.9631 21.8579C19.9001 22.0102 19.8676 22.1734 19.8677 22.3383C19.8677 22.5031 19.9002 22.6663 19.9633 22.8186C20.0265 22.9709 20.119 23.1092 20.2355 23.2257L20.6265 23.6167C19.9647 24.5437 19.5231 25.6095 19.3352 26.7329H18.7828C18.4498 26.7329 18.1305 26.8651 17.8951 27.1006C17.6596 27.336 17.5273 27.6554 17.5273 27.9883C17.5273 28.3213 17.6596 28.6406 17.8951 28.8761C18.1305 29.1115 18.4498 29.2438 18.7828 29.2438H19.3361C19.5234 30.3669 19.9648 31.4324 20.6265 32.359L20.2355 32.75C20.1187 32.8665 20.0259 33.0048 19.9625 33.1572C19.8991 33.3095 19.8664 33.4729 19.8663 33.6379C19.8661 33.8029 19.8984 33.9663 19.9615 34.1188C20.0245 34.2713 20.117 34.4098 20.2337 34.5265C20.3503 34.6432 20.4888 34.7358 20.6413 34.7989C20.7937 34.862 20.9571 34.8945 21.1221 34.8944C21.2871 34.8943 21.4505 34.8617 21.6029 34.7984C21.7553 34.7351 21.8937 34.6424 22.0102 34.5256L22.4012 34.1346C23.3284 34.7957 24.3941 35.237 25.5174 35.425V35.9774ZM24.693 31.4778C23.8556 30.9776 23.2261 30.1928 22.9194 29.2668C22.6128 28.3409 22.6494 27.3355 23.0227 26.4343C23.396 25.5331 24.081 24.7963 24.9526 24.3584C25.8242 23.9204 26.8242 23.8107 27.7701 24.0491C28.1506 24.1451 28.5149 24.2963 28.8516 24.4979C29.6028 24.9466 30.1894 25.6255 30.5244 26.4339C30.8593 27.2423 30.9248 28.1371 30.7111 28.9857C30.6151 29.3661 30.4639 29.7305 30.2623 30.0672C29.9161 30.647 29.4314 31.1317 28.8516 31.4778C28.5149 31.6794 28.1506 31.8306 27.7701 31.9267C27.2529 32.0578 26.7149 32.0856 26.1869 32.0086C25.6589 31.9316 25.1512 31.7512 24.693 31.4778Z" fill="#E31E24"/>
</g>
<defs>
<clipPath id="clip0_270_1877">
<rect width="35" height="35" fill="white" transform="translate(17 18)"/>
</clipPath>
</defs>
</svg>
