<svg width="70" height="70" viewBox="0 0 70 70" fill="none" xmlns="http://www.w3.org/2000/svg">
<rect width="70" height="70" rx="12" fill="white"/>
<path d="M39.5 34C41.9853 34 44 31.9853 44 29.5C44 27.0147 41.9853 25 39.5 25C37.0147 25 35 27.0147 35 29.5C35 31.9853 37.0147 34 39.5 34Z" fill="#E31E24"/>
<path d="M48.8992 35.5C48.6992 35.2 48.3992 35 47.9992 35C45.7992 35 43.6992 36 42.3992 37.8L41.4992 39C40.3992 40.3 38.6992 41 36.9992 41H33.9992C33.3992 41 32.9992 40.6 32.9992 40C32.9992 39.4 33.3992 39 33.9992 39H35.8992C37.4992 39 38.9992 37.7 38.9992 36.1V36C38.9992 35.5 38.4992 35 37.9992 35H31.8992C28.2992 35 25.3992 36.6 23.7992 39.2L21.0992 43.4C20.8992 43.7 20.8992 44.1 21.0992 44.4L24.0992 49.4C24.1992 49.6 24.4992 49.8 24.6992 49.9C24.7992 49.9 24.7992 49.9 24.8992 49.9C25.0992 49.9 25.2992 49.8 25.4992 49.7C29.2992 47.2 33.6992 45.9 38.1992 45.9C41.4992 45.9 44.4992 44.1 46.0992 41.2L48.7992 36.4C48.9992 36.2 48.9992 35.8 48.8992 35.5Z" fill="#E31E24"/>
<path d="M33 29.5C33 27 34.5 24.8 36.6 23.7C35.9 22.1 34.3 21 32.5 21C30 21 28 23 28 25.5C28 28 30 30 32.5 30C32.7 30 32.8 30 33 29.9C33 29.8 33 29.7 33 29.5Z" fill="#E31E24"/>
</svg>
