<svg width="70" height="70" viewBox="0 0 70 70" fill="none" xmlns="http://www.w3.org/2000/svg">
<rect width="70" height="70" rx="12" fill="white"/>
<path d="M36.6407 28.8967L33.5795 31.958L32.3609 30.7394C32.2753 30.6534 32.1736 30.5853 32.0617 30.5387C31.9497 30.4921 31.8296 30.4681 31.7084 30.468C31.5871 30.4679 31.467 30.4917 31.3549 30.538C31.2429 30.5844 31.1411 30.6524 31.0553 30.7381C30.9696 30.8239 30.9016 30.9257 30.8552 31.0378C30.8088 31.1498 30.785 31.2699 30.7852 31.3912C30.7853 31.5125 30.8093 31.6325 30.8559 31.7445C30.9024 31.8565 30.9706 31.9582 31.0565 32.0438L32.9273 33.9145C33.0129 34.0002 33.1146 34.0681 33.2265 34.1145C33.3384 34.1608 33.4583 34.1847 33.5794 34.1847C33.7006 34.1847 33.8205 34.1608 33.9324 34.1145C34.0443 34.0681 34.146 34.0002 34.2316 33.9145L37.945 30.2011C38.118 30.0281 38.2152 29.7936 38.2152 29.5489C38.2152 29.3043 38.118 29.0697 37.9451 28.8968C37.7721 28.7238 37.5375 28.6266 37.2929 28.6266C37.0483 28.6266 36.8137 28.7237 36.6407 28.8967Z" fill="#E31E24"/>
<path d="M31.7666 43.1082C31.1018 43.2215 30.4184 43.1419 29.7975 42.8787C29.1766 42.6156 28.6441 42.1799 28.2633 41.6233L28.021 41.2681L24.793 48.0095L27.9049 47.8864L29.7604 50.3878L33.3668 42.8583L33.3253 42.8406L31.7666 43.1082Z" fill="#E31E24"/>
<path d="M39.698 41.7448L38.5315 42.8137C37.881 43.4076 37.0317 43.7365 36.1508 43.7356C36.1185 43.7356 36.087 43.7349 36.0547 43.7341L39.2412 50.3879L41.0959 47.8864L44.2079 48.0095L41.0936 41.5057L39.698 41.7448Z" fill="#E31E24"/>
<path d="M45.1418 33.1045L44.5156 31.1699L45.0348 29.2038C45.1318 28.8366 45.1212 28.4493 45.0043 28.088C44.8873 27.7266 44.669 27.4065 44.3753 27.1658L42.8026 25.8768L42.1764 23.9421C42.0595 23.5808 41.8412 23.2607 41.5474 23.02C41.2537 22.7792 40.897 22.628 40.5197 22.5842L38.4998 22.3501L36.9271 21.0611C36.6334 20.8203 36.2767 20.6691 35.8994 20.6254C35.5221 20.5816 35.1403 20.6473 34.7993 20.8144L32.9734 21.7095L30.9535 21.4754C30.5762 21.4317 30.1944 21.4973 29.8533 21.6645C29.5123 21.8316 29.2266 22.0933 29.0301 22.4183L27.978 24.1584L26.1521 25.0535C25.8111 25.2207 25.5254 25.4824 25.3289 25.8074C25.1324 26.1324 25.0334 26.507 25.0438 26.8866L25.0996 28.9193L24.0475 30.6594C23.851 30.9844 23.7521 31.359 23.7625 31.7387C23.7729 32.1183 23.8922 32.487 24.1062 32.8007L25.252 34.4806L25.3077 36.5133C25.3181 36.8929 25.4374 37.2616 25.6514 37.5753C25.8654 37.889 26.1651 38.1347 26.5148 38.2829L28.3869 39.0766L29.5327 40.7565C29.7467 41.0703 30.0464 41.3159 30.3961 41.4641C30.7457 41.6124 31.1306 41.657 31.5049 41.5927L33.509 41.2482L35.3811 42.0419C35.7307 42.1902 36.1156 42.2348 36.4899 42.1705C36.8642 42.1061 37.2121 41.9356 37.4922 41.6791L38.992 40.3059L40.996 39.9615C41.3703 39.8971 41.7182 39.7266 41.9983 39.4701C42.2784 39.2136 42.4789 38.882 42.5759 38.5149L43.0951 36.5488L44.5948 35.1756C44.8749 34.9191 45.0754 34.5875 45.1723 34.2203C45.2693 33.8532 45.2587 33.4658 45.1418 33.1045ZM34.4999 38.3597C33.1245 38.3597 31.78 37.9519 30.6364 37.1877C29.4929 36.4236 28.6015 35.3375 28.0752 34.0669C27.5489 32.7962 27.4112 31.3979 27.6795 30.049C27.9478 28.7 28.6101 27.4609 29.5827 26.4884C30.5552 25.5159 31.7943 24.8536 33.1432 24.5852C34.4922 24.3169 35.8904 24.4546 37.1611 24.981C38.4318 25.5073 39.5179 26.3986 40.282 27.5422C41.0461 28.6858 41.454 30.0303 41.454 31.4057C41.454 32.3189 41.2741 33.2232 40.9246 34.0669C40.5751 34.9106 40.0629 35.6772 39.4172 36.3229C38.7714 36.9687 38.0048 37.4809 37.1611 37.8304C36.3174 38.1798 35.4131 38.3597 34.4999 38.3597Z" fill="#E31E24"/>
</svg>
