<svg width="51" height="52" viewBox="0 0 51 52" fill="none" xmlns="http://www.w3.org/2000/svg">
<path opacity="0.2" d="M51 26C51 40.3594 39.5833 52 25.5 52C11.4167 52 0 40.3594 0 26C0 11.6406 11.4167 0 25.5 0C39.5833 0 51 11.6406 51 26ZM4.59 26C4.59 37.7747 13.9517 47.32 25.5 47.32C37.0483 47.32 46.41 37.7747 46.41 26C46.41 14.2253 37.0483 4.68 25.5 4.68C13.9517 4.68 4.59 14.2253 4.59 26Z" fill="#A5A5A5"/>
<path d="M2.295 26C1.02751 26 -0.0103286 27.0295 0.0992747 28.2922C0.493263 32.8314 2.0522 37.2 4.63718 40.9501C7.65497 45.3282 11.9242 48.6502 16.8622 50.4629C21.8002 52.2756 27.1665 52.4905 32.2288 51.0785C37.291 49.6665 41.8027 46.6962 45.1481 42.573C48.4935 38.4499 50.5096 33.3746 50.9214 28.0399C51.3332 22.7052 50.1205 17.3709 47.4489 12.7649C44.7773 8.15892 40.7769 4.50561 35.9936 2.30351C31.9176 0.427058 27.4424 -0.317755 23.0181 0.123417C21.7396 0.250913 20.9124 1.47964 21.1487 2.74265C21.3874 4.0185 22.6203 4.84171 23.9144 4.74136C27.3952 4.47146 30.9005 5.09372 34.1048 6.56888C38.0271 8.3746 41.3074 11.3703 43.4981 15.1472C45.6888 18.9242 46.6832 23.2983 46.3455 27.6727C46.0079 32.0472 44.3546 36.2089 41.6114 39.5899C38.8682 42.9709 35.1687 45.4065 31.0176 46.5644C26.8665 47.7222 22.4662 47.546 18.417 46.0596C14.3678 44.5732 10.8671 41.8491 8.39249 38.2591C6.35097 35.2974 5.0899 31.8653 4.71104 28.2908C4.57744 27.0304 3.56249 26 2.295 26Z" fill="#E31E24"/>
<path d="M15.5885 21.8849C16.0409 21.888 16.481 21.968 16.9088 22.125C17.3396 22.2789 17.7274 22.5312 18.0721 22.8821C18.4168 23.2299 18.6907 23.6961 18.8938 24.2809C19.097 24.8656 19.1985 25.5889 19.1985 26.4506C19.2016 27.2631 19.1154 27.9895 18.94 28.6296C18.7677 29.2667 18.5199 29.8053 18.1968 30.2454C17.8736 30.6855 17.4843 31.021 17.0288 31.2518C16.5733 31.4826 16.0609 31.598 15.4915 31.598C14.8944 31.598 14.3651 31.4811 13.9034 31.2472C13.4449 31.0133 13.074 30.6932 12.7909 30.2869C12.5077 29.8807 12.3338 29.416 12.2692 28.8928H13.9542C14.0404 29.2682 14.2158 29.5668 14.4805 29.7884C14.7483 30.0069 15.0853 30.1161 15.4915 30.1161C16.147 30.1161 16.6518 29.8314 17.0057 29.2621C17.3596 28.6927 17.5366 27.9018 17.5366 26.8892H17.472C17.3212 27.16 17.1257 27.3939 16.8857 27.5909C16.6456 27.7848 16.3733 27.9341 16.0686 28.0387C15.767 28.1433 15.4469 28.1957 15.1083 28.1957C14.5544 28.1957 14.0558 28.0633 13.6126 27.7987C13.1725 27.534 12.8232 27.1708 12.5647 26.7092C12.3092 26.2475 12.18 25.7197 12.1769 25.1257C12.1769 24.5102 12.3184 23.9577 12.6016 23.4684C12.8878 22.976 13.2864 22.5882 13.7973 22.305C14.3081 22.0188 14.9052 21.8788 15.5885 21.8849ZM15.5931 23.2699C15.2607 23.2699 14.9606 23.3514 14.6929 23.5146C14.4282 23.6746 14.2189 23.8931 14.065 24.1701C13.9142 24.444 13.8388 24.7502 13.8388 25.0888C13.8419 25.4242 13.9173 25.7289 14.065 26.0028C14.2158 26.2768 14.4205 26.4937 14.679 26.6538C14.9406 26.8138 15.2391 26.8938 15.5746 26.8938C15.8239 26.8938 16.0563 26.8461 16.2717 26.7507C16.4871 26.6553 16.6749 26.523 16.8349 26.3537C16.998 26.1813 17.1242 25.9859 17.2135 25.7674C17.3058 25.5489 17.3504 25.3181 17.3473 25.0749C17.3473 24.7518 17.2704 24.4532 17.1165 24.1793C16.9657 23.9054 16.758 23.6854 16.4933 23.5192C16.2317 23.353 15.9316 23.2699 15.5931 23.2699ZM24.3182 31.598C23.8658 31.5949 23.4241 31.5165 22.9933 31.3626C22.5624 31.2056 22.1746 30.9517 21.8299 30.6009C21.4852 30.2469 21.2113 29.7776 21.0082 29.1928C20.805 28.605 20.705 27.8771 20.7081 27.0092C20.7081 26.1998 20.7943 25.4781 20.9666 24.8441C21.139 24.2101 21.3867 23.6746 21.7099 23.2376C22.033 22.7975 22.4223 22.462 22.8778 22.2312C23.3364 22.0004 23.8488 21.8849 24.4151 21.8849C25.0091 21.8849 25.5354 22.0019 25.994 22.2358C26.4556 22.4697 26.828 22.7898 27.1112 23.196C27.3943 23.5992 27.5697 24.0547 27.6374 24.5625H25.9524C25.8662 24.1993 25.6893 23.91 25.4215 23.6946C25.1568 23.4761 24.8214 23.3668 24.4151 23.3668C23.7596 23.3668 23.2549 23.6515 22.9009 24.2209C22.5501 24.7902 22.3731 25.572 22.37 26.5661H22.4347C22.5855 26.2952 22.7809 26.0629 23.021 25.869C23.261 25.6751 23.5318 25.5258 23.8335 25.4212C24.1381 25.3134 24.4598 25.2596 24.7983 25.2596C25.3523 25.2596 25.8493 25.3919 26.2894 25.6566C26.7326 25.9213 27.0835 26.286 27.342 26.7507C27.6005 27.2124 27.7282 27.7417 27.7251 28.3388C27.7282 28.9605 27.5866 29.5191 27.3004 30.0146C27.0142 30.507 26.6156 30.8948 26.1048 31.1779C25.5939 31.4611 24.9983 31.6011 24.3182 31.598ZM24.3089 30.2131C24.6444 30.2131 24.9445 30.1315 25.2092 29.9684C25.4738 29.8053 25.6831 29.5852 25.837 29.3082C25.9909 29.0312 26.0663 28.7204 26.0632 28.3757C26.0663 28.0372 25.9924 27.7309 25.8416 27.457C25.6939 27.1831 25.4892 26.9661 25.2276 26.8061C24.966 26.6461 24.6675 26.5661 24.332 26.5661C24.0827 26.5661 23.8504 26.6138 23.6349 26.7092C23.4195 26.8046 23.2318 26.9369 23.0717 27.1062C22.9117 27.2724 22.7855 27.4663 22.6932 27.6879C22.6039 27.9064 22.5578 28.1403 22.5547 28.3896C22.5578 28.7189 22.6347 29.022 22.7855 29.299C22.9363 29.576 23.1441 29.7976 23.4087 29.9638C23.6734 30.13 23.9735 30.2131 24.3089 30.2131ZM34.4606 29.696V29.1974C34.4606 28.8312 34.5375 28.4942 34.6914 28.1864C34.8483 27.8787 35.0761 27.6309 35.3746 27.4432C35.6731 27.2554 36.0348 27.1616 36.4595 27.1616C36.8965 27.1616 37.2628 27.2554 37.5582 27.4432C37.8537 27.6278 38.0768 27.8741 38.2276 28.1818C38.3815 28.4896 38.4584 28.8281 38.4584 29.1974V29.696C38.4584 30.0623 38.3815 30.3993 38.2276 30.707C38.0737 31.0148 37.8475 31.2625 37.549 31.4503C37.2535 31.638 36.8904 31.7319 36.4595 31.7319C36.0286 31.7319 35.6639 31.638 35.3654 31.4503C35.0669 31.2625 34.8406 31.0148 34.6868 30.707C34.536 30.3993 34.4606 30.0623 34.4606 29.696ZM35.6655 29.1974V29.696C35.6655 29.9392 35.7239 30.1623 35.8409 30.3654C35.9578 30.5685 36.164 30.6701 36.4595 30.6701C36.758 30.6701 36.9627 30.5701 37.0735 30.37C37.1874 30.1669 37.2443 29.9422 37.2443 29.696V29.1974C37.2443 28.9512 37.1904 28.7266 37.0827 28.5234C36.975 28.3172 36.7673 28.2141 36.4595 28.2141C36.1702 28.2141 35.9655 28.3172 35.8455 28.5234C35.7255 28.7266 35.6655 28.9512 35.6655 29.1974ZM29.6548 24.2855V23.7869C29.6548 23.4176 29.7333 23.0791 29.8902 22.7713C30.0472 22.4635 30.2749 22.2173 30.5735 22.0327C30.872 21.8449 31.2336 21.7511 31.6584 21.7511C32.0923 21.7511 32.457 21.8449 32.7525 22.0327C33.051 22.2173 33.2757 22.4635 33.4265 22.7713C33.5773 23.0791 33.6527 23.4176 33.6527 23.7869V24.2855C33.6527 24.6548 33.5757 24.9934 33.4218 25.3011C33.271 25.6058 33.0464 25.8505 32.7478 26.0352C32.4493 26.2198 32.0861 26.3121 31.6584 26.3121C31.2244 26.3121 30.8582 26.2198 30.5596 26.0352C30.2642 25.8505 30.0395 25.6043 29.8856 25.2965C29.7317 24.9888 29.6548 24.6518 29.6548 24.2855ZM30.8689 23.7869V24.2855C30.8689 24.5317 30.9259 24.7564 31.0397 24.9595C31.1567 25.1596 31.3629 25.2596 31.6584 25.2596C31.9538 25.2596 32.1569 25.1596 32.2677 24.9595C32.3816 24.7564 32.4385 24.5317 32.4385 24.2855V23.7869C32.4385 23.5407 32.3847 23.3161 32.277 23.1129C32.1692 22.9067 31.963 22.8036 31.6584 22.8036C31.366 22.8036 31.1613 22.9067 31.0444 23.1129C30.9274 23.3191 30.8689 23.5438 30.8689 23.7869ZM30.1811 31.4688L36.6811 22.0142H37.8352L31.3352 31.4688H30.1811Z" fill="#686E77"/>
</svg>
