<svg width="51" height="52" viewBox="0 0 51 52" fill="none" xmlns="http://www.w3.org/2000/svg">
<path opacity="0.2" d="M51 26C51 40.3594 39.5833 52 25.5 52C11.4167 52 0 40.3594 0 26C0 11.6406 11.4167 0 25.5 0C39.5833 0 51 11.6406 51 26ZM4.59 26C4.59 37.7747 13.9517 47.32 25.5 47.32C37.0483 47.32 46.41 37.7747 46.41 26C46.41 14.2253 37.0483 4.68 25.5 4.68C13.9517 4.68 4.59 14.2253 4.59 26Z" fill="#A5A5A5"/>
<path d="M2.295 26C1.02751 26 -0.0103286 27.0295 0.0992747 28.2922C0.493263 32.8314 2.0522 37.2 4.63718 40.9501C7.65497 45.3282 11.9242 48.6502 16.8622 50.4629C21.8002 52.2756 27.1665 52.4905 32.2288 51.0785C37.291 49.6665 41.8027 46.6962 45.1481 42.573C48.4935 38.4499 50.5096 33.3746 50.9214 28.0399C51.3332 22.7052 50.1205 17.3709 47.4489 12.7649C44.7773 8.15892 40.7769 4.50561 35.9936 2.30351C31.9176 0.427058 27.4424 -0.317755 23.0181 0.123417C21.7396 0.250913 20.9124 1.47964 21.1487 2.74265C21.3874 4.0185 22.6203 4.84171 23.9144 4.74136C27.3952 4.47146 30.9005 5.09372 34.1048 6.56888C38.0271 8.3746 41.3074 11.3703 43.4981 15.1472C45.6888 18.9242 46.6832 23.2983 46.3455 27.6727C46.0079 32.0472 44.3546 36.2089 41.6114 39.5899C38.8682 42.9709 35.1687 45.4065 31.0176 46.5644C26.8665 47.7222 22.4662 47.546 18.417 46.0596C14.3678 44.5732 10.8671 41.8491 8.39249 38.2591C6.35097 35.2974 5.0899 31.8653 4.71104 28.2908C4.57744 27.0304 3.56249 26 2.295 26Z" fill="#E31E24"/>
<path d="M15.2662 21.8849C15.7186 21.888 16.1587 21.968 16.5865 22.125C17.0174 22.2789 17.4052 22.5312 17.7499 22.8821C18.0945 23.2299 18.3685 23.6961 18.5716 24.2809C18.7747 24.8656 18.8763 25.5889 18.8763 26.4506C18.8793 27.2631 18.7932 27.9895 18.6177 28.6296C18.4454 29.2667 18.1976 29.8053 17.8745 30.2454C17.5513 30.6855 17.162 31.021 16.7065 31.2518C16.251 31.4826 15.7386 31.598 15.1692 31.598C14.5722 31.598 14.0428 31.4811 13.5812 31.2472C13.1226 31.0133 12.7517 30.6932 12.4686 30.2869C12.1855 29.8807 12.0116 29.416 11.9469 28.8928H13.632C13.7181 29.2682 13.8936 29.5668 14.1582 29.7884C14.426 30.0069 14.763 30.1161 15.1692 30.1161C15.8248 30.1161 16.3295 29.8314 16.6834 29.2621C17.0374 28.6927 17.2143 27.9018 17.2143 26.8892H17.1497C16.9989 27.16 16.8035 27.3939 16.5634 27.5909C16.3234 27.7848 16.051 27.9341 15.7463 28.0387C15.4447 28.1433 15.1246 28.1957 14.7861 28.1957C14.2321 28.1957 13.7335 28.0633 13.2903 27.7987C12.8502 27.534 12.5009 27.1708 12.2424 26.7092C11.9869 26.2475 11.8577 25.7197 11.8546 25.1257C11.8546 24.5102 11.9962 23.9577 12.2793 23.4684C12.5655 22.976 12.9641 22.5882 13.475 22.305C13.9859 22.0188 14.5829 21.8788 15.2662 21.8849ZM15.2708 23.2699C14.9384 23.2699 14.6383 23.3514 14.3706 23.5146C14.1059 23.6746 13.8966 23.8931 13.7427 24.1701C13.5919 24.444 13.5165 24.7502 13.5165 25.0888C13.5196 25.4242 13.595 25.7289 13.7427 26.0028C13.8936 26.2768 14.0982 26.4937 14.3567 26.6538C14.6183 26.8138 14.9169 26.8938 15.2523 26.8938C15.5016 26.8938 15.734 26.8461 15.9494 26.7507C16.1649 26.6553 16.3526 26.523 16.5126 26.3537C16.6758 26.1813 16.8019 25.9859 16.8912 25.7674C16.9835 25.5489 17.0281 25.3181 17.0251 25.0749C17.0251 24.7518 16.9481 24.4532 16.7942 24.1793C16.6434 23.9054 16.4357 23.6854 16.171 23.5192C15.9094 23.353 15.6093 23.2699 15.2708 23.2699ZM20.5336 31.4688V30.2315L23.8159 27.0138C24.1298 26.6969 24.3914 26.4152 24.6007 26.169C24.81 25.9228 24.9669 25.6843 25.0716 25.4535C25.1762 25.2227 25.2285 24.9764 25.2285 24.7148C25.2285 24.4163 25.1608 24.1609 25.0254 23.9485C24.89 23.7331 24.7038 23.5669 24.4668 23.4499C24.2298 23.333 23.9605 23.2745 23.6589 23.2745C23.3481 23.2745 23.0757 23.3391 22.8418 23.4684C22.6079 23.5946 22.4263 23.7746 22.2971 24.0085C22.1709 24.2424 22.1078 24.521 22.1078 24.8441H20.4782C20.4782 24.244 20.6151 23.7223 20.889 23.2791C21.1629 22.8359 21.54 22.4928 22.0201 22.2496C22.5033 22.0065 23.0572 21.8849 23.682 21.8849C24.316 21.8849 24.873 22.0034 25.3532 22.2404C25.8333 22.4774 26.2057 22.8021 26.4703 23.2145C26.7381 23.6269 26.872 24.0978 26.872 24.6271C26.872 24.9811 26.8043 25.3288 26.6689 25.6705C26.5334 26.0121 26.2949 26.3906 25.9533 26.8061C25.6148 27.2216 25.1393 27.7248 24.5268 28.3157L22.8972 29.973V30.0376H27.0151V31.4688H20.5336ZM33.7828 29.696V29.1974C33.7828 28.8312 33.8598 28.4942 34.0136 28.1864C34.1706 27.8787 34.3983 27.6309 34.6969 27.4432C34.9954 27.2554 35.357 27.1616 35.7818 27.1616C36.2188 27.1616 36.585 27.2554 36.8805 27.4432C37.1759 27.6278 37.3991 27.8741 37.5499 28.1818C37.7037 28.4896 37.7807 28.8281 37.7807 29.1974V29.696C37.7807 30.0623 37.7037 30.3993 37.5499 30.707C37.396 31.0148 37.1698 31.2625 36.8712 31.4503C36.5758 31.638 36.2126 31.7319 35.7818 31.7319C35.3509 31.7319 34.9862 31.638 34.6876 31.4503C34.3891 31.2625 34.1629 31.0148 34.009 30.707C33.8582 30.3993 33.7828 30.0623 33.7828 29.696ZM34.9877 29.1974V29.696C34.9877 29.9392 35.0462 30.1623 35.1631 30.3654C35.2801 30.5685 35.4863 30.6701 35.7818 30.6701C36.0803 30.6701 36.2849 30.5701 36.3957 30.37C36.5096 30.1669 36.5666 29.9422 36.5666 29.696V29.1974C36.5666 28.9512 36.5127 28.7266 36.405 28.5234C36.2973 28.3172 36.0895 28.2141 35.7818 28.2141C35.4925 28.2141 35.2878 28.3172 35.1678 28.5234C35.0477 28.7266 34.9877 28.9512 34.9877 29.1974ZM28.9771 24.2855V23.7869C28.9771 23.4176 29.0555 23.0791 29.2125 22.7713C29.3695 22.4635 29.5972 22.2173 29.8957 22.0327C30.1943 21.8449 30.5559 21.7511 30.9806 21.7511C31.4146 21.7511 31.7793 21.8449 32.0747 22.0327C32.3733 22.2173 32.5979 22.4635 32.7487 22.7713C32.8995 23.0791 32.9749 23.4176 32.9749 23.7869V24.2855C32.9749 24.6548 32.898 24.9934 32.7441 25.3011C32.5933 25.6058 32.3686 25.8505 32.0701 26.0352C31.7716 26.2198 31.4084 26.3121 30.9806 26.3121C30.5467 26.3121 30.1804 26.2198 29.8819 26.0352C29.5864 25.8505 29.3618 25.6043 29.2079 25.2965C29.054 24.9888 28.9771 24.6518 28.9771 24.2855ZM30.1912 23.7869V24.2855C30.1912 24.5317 30.2481 24.7564 30.362 24.9595C30.479 25.1596 30.6852 25.2596 30.9806 25.2596C31.2761 25.2596 31.4792 25.1596 31.59 24.9595C31.7039 24.7564 31.7608 24.5317 31.7608 24.2855V23.7869C31.7608 23.5407 31.7069 23.3161 31.5992 23.1129C31.4915 22.9067 31.2853 22.8036 30.9806 22.8036C30.6882 22.8036 30.4836 22.9067 30.3666 23.1129C30.2497 23.3191 30.1912 23.5438 30.1912 23.7869ZM29.5033 31.4688L36.0033 22.0142H37.1575L30.6575 31.4688H29.5033Z" fill="#686E77"/>
</svg>
