<svg width="16" height="17" viewBox="0 0 16 17" fill="none" xmlns="http://www.w3.org/2000/svg">
<g clip-path="url(#clip0_270_1313)">
<path d="M8 1.85928C11.5288 1.85928 14.4 4.73048 14.4 8.25928C14.4 11.7881 11.5288 14.6593 8 14.6593C4.4712 14.6593 1.6 11.7881 1.6 8.25928C1.6 4.73048 4.4712 1.85928 8 1.85928ZM8 0.259277C3.5816 0.259277 0 3.84088 0 8.25928C0 12.6777 3.5816 16.2593 8 16.2593C12.4184 16.2593 16 12.6777 16 8.25928C16 3.84088 12.4184 0.259277 8 0.259277ZM11.04 10.9793L8.8 7.99288V4.25928H7.2V8.52568L9.76 11.9385L11.04 10.9793Z" fill="#686E77"/>
</g>
<defs>
<clipPath id="clip0_270_1313">
<rect width="16" height="16" fill="white" transform="translate(0 0.259277)"/>
</clipPath>
</defs>
</svg>
