<svg width="19" height="16" viewBox="0 0 19 16" fill="none" xmlns="http://www.w3.org/2000/svg">
<path d="M0.865797 7.87014C2.66633 6.83594 4.67621 5.97275 6.55414 5.10517C9.78491 3.68413 13.0285 2.28773 16.3048 0.987689C16.9423 0.766189 18.0877 0.549601 18.2 1.53466C18.1385 2.92906 17.8855 4.31529 17.712 5.70153C17.2715 8.74998 16.7625 11.788 16.2661 14.8264C16.095 15.8385 14.8792 16.3624 14.1013 15.7147C12.2317 14.3979 10.3477 13.0938 8.50201 11.7464C7.8974 11.1057 8.45806 10.1857 8.99803 9.72824C10.5379 8.14579 12.1709 6.80132 13.6303 5.13709C14.0239 4.14582 12.8608 4.98122 12.4771 5.23722C10.3691 6.75208 8.3126 8.35943 6.09004 9.69078C4.95476 10.3425 3.63157 9.78556 2.4968 9.42193C1.47936 8.98264 -0.0115975 8.54005 0.865694 7.87026L0.865797 7.87014Z" fill="#E31E24"/>
</svg>
