<svg width="24" height="24" viewBox="0 0 24 24" fill="none" xmlns="http://www.w3.org/2000/svg">
<path d="M12.0042 2.18164H11.9993C6.58582 2.18164 2.18359 6.58509 2.18359 11.9998C2.18359 13.9629 2.76186 15.7947 3.76001 17.3294C3.93657 17.6009 3.99155 17.9369 3.88855 18.2439L3.45703 19.5303C3.19647 20.307 3.92925 21.0503 4.7096 20.8008L6.14612 20.3416C6.43495 20.2493 6.74851 20.2957 7.00917 20.4506C8.47439 21.3216 10.1788 21.818 12.0042 21.818C17.4177 21.818 21.82 17.4133 21.82 11.9998C21.82 6.58632 17.4177 2.18164 12.0042 2.18164ZM17.7172 16.0461C17.4803 16.715 16.5402 17.2697 15.7904 17.4317C15.2774 17.541 14.6073 17.6281 12.3515 16.6929C9.46623 15.4975 7.60814 12.5656 7.46332 12.3754C7.32464 12.1851 6.29741 10.8229 6.29741 9.41396C6.29741 8.00505 7.01291 7.319 7.30132 7.02446C7.53818 6.78269 7.92968 6.67223 8.30523 6.67223C8.42673 6.67223 8.53596 6.67837 8.63414 6.68328C8.92255 6.69555 9.06737 6.71273 9.25759 7.16805C9.49446 7.73873 10.0713 9.14764 10.14 9.29246C10.21 9.43728 10.2799 9.63364 10.1817 9.82387C10.0897 10.0202 10.0087 10.1074 9.86387 10.2743C9.71905 10.4412 9.58159 10.5688 9.43677 10.748C9.30423 10.9039 9.1545 11.0708 9.32141 11.3592C9.48832 11.6415 10.0651 12.5828 10.9144 13.3388C12.0104 14.3145 12.8989 14.6262 13.2168 14.7587C13.4536 14.8569 13.7359 14.8336 13.909 14.6495C14.1286 14.4126 14.3999 14.0199 14.676 13.6333C14.8724 13.356 15.1203 13.3216 15.3805 13.4198C15.6455 13.5118 17.0483 14.2052 17.3367 14.3488C17.6251 14.4936 17.8154 14.5624 17.8853 14.6839C17.954 14.8054 17.954 15.376 17.7172 16.0461Z" fill="#E31E24"/>
</svg>
