<svg width="20" height="20" viewBox="0 0 20 20" fill="none" xmlns="http://www.w3.org/2000/svg">
<path d="M9.99919 2.13304C12.5625 2.13304 12.8661 2.14283 13.8784 2.18902C14.8144 2.2317 15.3227 2.38809 15.661 2.51956C16.1091 2.69371 16.4289 2.90174 16.7648 3.23765C17.1007 3.5736 17.3088 3.8934 17.4829 4.3415C17.6144 4.67978 17.7708 5.18809 17.8135 6.12408C17.8596 7.13635 17.8694 7.43999 17.8694 10.0033C17.8694 12.5666 17.8596 12.8702 17.8135 13.8825C17.7708 14.8185 17.6144 15.3268 17.4829 15.6651C17.3088 16.1132 17.1007 16.433 16.7648 16.7689C16.4289 17.1048 16.1091 17.3129 15.661 17.487C15.3227 17.6185 14.8144 17.7749 13.8784 17.8176C12.8663 17.8637 12.5627 17.8735 9.99919 17.8735C7.43568 17.8735 7.13211 17.8637 6.11995 17.8176C5.18396 17.7749 4.67564 17.6185 4.33736 17.487C3.88926 17.3129 3.56946 17.1048 3.23355 16.7689C2.89763 16.433 2.68957 16.1132 2.51542 15.6651C2.38395 15.3268 2.22756 14.8185 2.18488 13.8825C2.13869 12.8702 2.1289 12.5666 2.1289 10.0033C2.1289 7.43999 2.13869 7.13635 2.18488 6.12408C2.22756 5.18809 2.38395 4.67978 2.51542 4.3415C2.68957 3.8934 2.8976 3.5736 3.23355 3.23769C3.56946 2.90174 3.88926 2.69371 4.33736 2.51956C4.67564 2.38809 5.18396 2.2317 6.11995 2.18902C7.13223 2.14283 7.43587 2.13304 9.99919 2.13304ZM9.99919 0.40332C7.39197 0.40332 7.06504 0.414371 6.0411 0.461091C5.01929 0.507696 4.32144 0.669994 3.7108 0.907287C3.07952 1.15262 2.54415 1.48088 2.01042 2.01457C1.47673 2.54829 1.14847 3.08366 0.903177 3.71494C0.665844 4.32557 0.503546 5.02343 0.456941 6.04523C0.410221 7.06917 0.39917 7.39609 0.39917 10.0033C0.39917 12.6105 0.410221 12.9374 0.456941 13.9613C0.503546 14.9831 0.665844 15.681 0.903177 16.2916C1.14847 16.9229 1.47673 17.4583 2.01042 17.992C2.54415 18.5257 3.07952 18.854 3.7108 19.0992C4.32144 19.3366 5.01929 19.4989 6.0411 19.5455C7.06504 19.5922 7.39197 19.6033 9.99919 19.6033C12.6064 19.6033 12.9333 19.5922 13.9572 19.5455C14.979 19.4989 15.6769 19.3366 16.2875 19.0992C16.9188 18.854 17.4542 18.5257 17.9879 17.992C18.5216 17.4583 18.8499 16.9229 19.0952 16.2916C19.3325 15.681 19.4948 14.9831 19.5414 13.9613C19.5881 12.9374 19.5992 12.6105 19.5992 10.0033C19.5992 7.39609 19.5881 7.06917 19.5414 6.04523C19.4948 5.02343 19.3325 4.32557 19.0952 3.71494C18.8499 3.08366 18.5216 2.54829 17.9879 2.01457C17.4542 1.48088 16.9188 1.15262 16.2875 0.907287C15.6769 0.669994 14.979 0.507696 13.9572 0.461091C12.9333 0.414371 12.6064 0.40332 9.99919 0.40332Z" fill="#E31E24"/>
<path d="M10.0041 5.07373C7.28144 5.07373 5.07434 7.28082 5.07434 10.0034C5.07434 12.7261 7.28144 14.9332 10.0041 14.9332C12.7267 14.9332 14.9338 12.7261 14.9338 10.0034C14.9338 7.28082 12.7267 5.07373 10.0041 5.07373ZM10.0041 13.2034C8.23675 13.2034 6.80407 11.7708 6.80407 10.0034C6.80407 8.23613 8.23675 6.80345 10.0041 6.80345C11.7714 6.80345 13.2041 8.23613 13.2041 10.0034C13.2041 11.7708 11.7714 13.2034 10.0041 13.2034Z" fill="#E31E24"/>
<path d="M16.2801 4.87712C16.2801 5.51332 15.7643 6.0291 15.1281 6.0291C14.4919 6.0291 13.9761 5.51332 13.9761 4.87712C13.9761 4.24088 14.4919 3.7251 15.1281 3.7251C15.7643 3.7251 16.2801 4.24088 16.2801 4.87712Z" fill="#E31E24"/>
</svg>
