<svg width="70" height="70" viewBox="0 0 70 70" fill="none" xmlns="http://www.w3.org/2000/svg">
<rect width="70" height="70" rx="12" fill="#F9E9E4"/>
<path d="M40.3327 20.6665H29.666C28.2515 20.6665 26.895 21.2284 25.8948 22.2286C24.8946 23.2288 24.3327 24.5853 24.3327 25.9998V36.3998C24.301 39.2631 25.4062 42.0221 27.4058 44.0716C29.4054 46.1212 32.1362 47.2942 34.9994 47.3332C37.8625 47.2942 40.5934 46.1212 42.593 44.0716C44.5926 42.0221 45.6977 39.2631 45.666 36.3998V25.9998C45.666 24.5853 45.1041 23.2288 44.1039 22.2286C43.1037 21.2284 41.7472 20.6665 40.3327 20.6665ZM42.9994 36.3998C43.0318 38.5561 42.2079 40.6372 40.7082 42.1869C39.2085 43.7366 37.1555 44.6283 34.9994 44.6665C32.8432 44.6283 30.7902 43.7366 29.2905 42.1869C27.7908 40.6372 26.9669 38.5561 26.9994 36.3998V35.3332H42.9994V36.3998ZM30.9994 25.9998H33.666V23.3332H36.3327V25.9998H38.9994V28.6665H36.3327V31.3332H33.666V28.6665H30.9994V25.9998Z" fill="#E31E24"/>
</svg>
