<svg width="70" height="70" viewBox="0 0 70 70" fill="none" xmlns="http://www.w3.org/2000/svg">
<rect width="70" height="70" rx="12" fill="#F9E9E4"/>
<path d="M47.65 24.7H43.6V23.35C43.6 22.992 43.4578 22.6486 43.2046 22.3954C42.9514 22.1422 42.608 22 42.25 22H28.75C28.392 22 28.0486 22.1422 27.7954 22.3954C27.5422 22.6486 27.4 22.992 27.4 23.35V24.7H23.35C22.992 24.7 22.6486 24.8422 22.3954 25.0954C22.1422 25.3486 22 25.692 22 26.05V30.1C22 31.5322 22.5689 32.9057 23.5816 33.9184C24.5943 34.9311 25.9678 35.5 27.4 35.5H29.479C30.7001 36.8623 32.3465 37.7712 34.15 38.0785V40.9H32.8C31.7259 40.9 30.6957 41.3267 29.9362 42.0862C29.1767 42.8457 28.75 43.8759 28.75 44.95V47.65C28.75 48.008 28.8922 48.3514 29.1454 48.6046C29.3986 48.8578 29.742 49 30.1 49H40.9C41.258 49 41.6014 48.8578 41.8546 48.6046C42.1078 48.3514 42.25 48.008 42.25 47.65V44.95C42.25 43.8759 41.8233 42.8457 41.0638 42.0862C40.3043 41.3267 39.2741 40.9 38.2 40.9H36.85V38.0785C38.6535 37.7712 40.2999 36.8623 41.521 35.5H43.6C45.0322 35.5 46.4057 34.9311 47.4184 33.9184C48.4311 32.9057 49 31.5322 49 30.1V26.05C49 25.692 48.8578 25.3486 48.6046 25.0954C48.3514 24.8422 48.008 24.7 47.65 24.7ZM27.4 32.8C26.6839 32.8 25.9972 32.5155 25.4908 32.0092C24.9845 31.5028 24.7 30.8161 24.7 30.1V27.4H27.4V30.1C27.403 31.0203 27.5628 31.9334 27.8725 32.8H27.4ZM46.3 30.1C46.3 30.8161 46.0155 31.5028 45.5092 32.0092C45.0028 32.5155 44.3161 32.8 43.6 32.8H43.1275C43.4372 31.9334 43.597 31.0203 43.6 30.1V27.4H46.3V30.1Z" fill="#E31E24"/>
</svg>
