<svg width="70" height="70" viewBox="0 0 70 70" fill="none" xmlns="http://www.w3.org/2000/svg">
<rect width="70" height="70" rx="12" fill="#F9E9E4"/>
<path fill-rule="evenodd" clip-rule="evenodd" d="M46.7678 44.8035C46.8451 44.8137 46.9224 44.8243 46.9997 44.8351L47.3871 44.8895C49.0741 45.1262 50.5835 43.8404 50.5835 42.1665V40.889C50.5835 39.6918 49.8173 38.6239 48.6695 38.2212C47.3434 37.756 45.9744 37.4531 44.5924 37.3125C46.0342 38.3551 46.9284 40.0432 46.9284 41.8848V43.4709C46.9284 43.9317 46.8726 44.3778 46.7678 44.8035ZM40.9229 35.6128C41.4977 35.8502 42.1291 35.9814 42.7918 35.9814C45.457 35.9814 47.6176 33.8591 47.6176 31.2412C47.6176 28.6232 45.457 26.501 42.7918 26.501C42.7127 26.501 42.6341 26.5028 42.556 26.5065C43.0406 27.5386 43.3114 28.691 43.3114 29.9067C43.3114 32.1401 42.3973 34.1601 40.9229 35.6128Z" fill="#E31E24"/>
<path fill-rule="evenodd" clip-rule="evenodd" d="M23.7712 44.8035C23.6939 44.8137 23.6166 44.8243 23.5394 44.8351L23.1519 44.8895C21.4649 45.1262 19.9556 43.8404 19.9556 42.1665V40.889C19.9556 39.6918 20.7218 38.6239 21.8695 38.2212C23.1956 37.756 24.5646 37.4531 25.9466 37.3125C24.5049 38.3551 23.6107 40.0432 23.6107 41.8848V43.4709C23.6107 43.9317 23.6664 44.3778 23.7712 44.8035ZM29.6162 35.6128C29.0414 35.8502 28.4099 35.9814 27.7473 35.9814C25.0821 35.9814 22.9215 33.8591 22.9215 31.2412C22.9215 28.6232 25.0821 26.501 27.7473 26.501C27.8263 26.501 27.9049 26.5028 27.9831 26.5065C27.4985 27.5386 27.2277 28.691 27.2277 29.9067C27.2277 32.1401 28.1418 34.1601 29.6162 35.6128Z" fill="#E31E24"/>
<path fill-rule="evenodd" clip-rule="evenodd" d="M41.1862 29.9067C41.1862 26.6564 38.5513 24.0215 35.301 24.0215C32.0507 24.0215 29.4158 26.6564 29.4158 29.9067C29.4158 33.157 32.0507 35.7919 35.301 35.7919C38.5513 35.7919 41.1862 33.157 41.1862 29.9067Z" fill="#E31E24"/>
<path fill-rule="evenodd" clip-rule="evenodd" d="M28.1329 38.5727C32.7683 36.9172 37.8338 36.9172 42.4691 38.5727C43.8689 39.0726 44.8033 40.3985 44.8033 41.8848V43.4709C44.8033 45.5492 42.9626 47.1456 40.9052 46.8517L40.4327 46.7842C37.0289 46.2979 33.5732 46.2979 30.1694 46.7842L29.6969 46.8517C27.6395 47.1456 25.7988 45.5492 25.7988 43.4709V41.8848C25.7988 40.3985 26.7332 39.0726 28.1329 38.5727Z" fill="#E31E24"/>
</svg>
