<svg width="70" height="70" viewBox="0 0 70 70" fill="none" xmlns="http://www.w3.org/2000/svg">
<rect width="70" height="70" rx="12" fill="#F9E9E4"/>
<path fill-rule="evenodd" clip-rule="evenodd" d="M32.1243 23.0011C28.7358 21.0939 25.7337 21.9907 23.2385 25.0201C20.8303 27.944 22.4722 33.2144 23.6526 37.003C23.934 37.9064 24.1892 38.7255 24.357 39.4085C25.2284 42.956 26.0622 45.1666 27.9634 46.7664C28.9049 47.5586 29.9725 46.1972 31.0988 44.7608C32.0754 43.5155 33.0961 42.2138 34.117 42.2107C35.1214 42.2077 36.1259 43.5073 37.0889 44.753C38.2005 46.1911 39.2567 47.5574 40.1933 46.7664C41.6454 45.5399 42.3049 44.6401 43.1028 42.1133C43.973 39.3577 45.378 36.0625 46.495 32.2641C47.2809 29.5915 47.3751 26.8707 45.11 24.2443C41.8761 20.4947 37.3938 22.4314 35.3072 23.6716L38.1334 26.0944C38.461 26.3752 38.499 26.8684 38.2181 27.1959C37.9373 27.5235 37.4441 27.5615 37.1166 27.2806L32.1243 23.0011Z" fill="#E31E24"/>
</svg>
