<svg width="211" height="54" viewBox="0 0 211 54" fill="none" xmlns="http://www.w3.org/2000/svg">
<circle cx="26.6077" cy="27.3926" r="26.6077" fill="#F03B3B"/>
<path d="M17.7351 38.7102V35.6243L28.6233 20.6981H17.7461V16.2991H35.4736V19.385L24.5854 34.3111H35.4626V38.7102H17.7351Z" fill="white"/>
<ellipse cx="26.6077" cy="26.5068" rx="26.6077" ry="25.9013" fill="#F03B3B"/>
<path d="M75.4095 19.1808H80.17L85.8621 29.4743H86.0893L91.7815 19.1808H96.5419L88.0776 33.769V42.4492H83.8738V33.769L75.4095 19.1808ZM104.154 42.7901C102.405 42.7901 100.894 42.4265 99.6212 41.6994C98.3563 40.9646 97.383 39.927 96.7013 38.5863C96.0196 37.2381 95.6787 35.6512 95.6787 33.8258C95.6787 32.0307 96.0196 30.4552 96.7013 29.0994C97.3906 27.736 98.3525 26.6756 99.5871 25.9182C100.822 25.1531 102.272 24.7706 103.939 24.7706C105.014 24.7706 106.029 24.9449 106.983 25.2933C107.945 25.6341 108.794 26.1643 109.528 26.8839C110.271 27.6035 110.854 28.52 111.278 29.6334C111.702 30.7392 111.914 32.0572 111.914 33.5872V34.8483H97.6102V32.0761H107.972C107.964 31.2884 107.794 30.5878 107.461 29.9742C107.127 29.3531 106.662 28.8646 106.063 28.5086C105.472 28.1526 104.783 27.9746 103.995 27.9746C103.155 27.9746 102.416 28.1791 101.78 28.5881C101.144 28.9896 100.648 29.5198 100.292 30.1787C99.9431 30.8301 99.7651 31.5459 99.7575 32.3261V34.7461C99.7575 35.7611 99.9431 36.6321 100.314 37.3592C100.685 38.0788 101.204 38.6317 101.871 39.018C102.537 39.3967 103.317 39.5861 104.211 39.5861C104.81 39.5861 105.351 39.5028 105.836 39.3362C106.321 39.1619 106.741 38.9082 107.097 38.5749C107.453 38.2417 107.722 37.8289 107.904 37.3365L111.744 37.7683C111.502 38.7832 111.04 39.6694 110.358 40.4269C109.684 41.1767 108.82 41.76 107.767 42.1765C106.715 42.5856 105.51 42.7901 104.154 42.7901ZM119.652 19.1808V42.4492H115.539V19.1808H119.652ZM128.139 19.1808V42.4492H124.026V19.1808H128.139ZM135.047 42.6992C134.358 42.6992 133.767 42.4568 133.275 41.972C132.783 41.4873 132.54 40.8965 132.548 40.1996C132.54 39.5179 132.783 38.9347 133.275 38.45C133.767 37.9652 134.358 37.7228 135.047 37.7228C135.714 37.7228 136.293 37.9652 136.786 38.45C137.286 38.9347 137.539 39.5179 137.547 40.1996C137.539 40.6617 137.418 41.082 137.183 41.4608C136.956 41.8395 136.653 42.1425 136.274 42.3697C135.903 42.5893 135.494 42.6992 135.047 42.6992ZM141.938 42.4492V24.9979H145.926V27.9064H146.108C146.426 26.899 146.972 26.1227 147.744 25.5773C148.524 25.0244 149.414 24.7479 150.414 24.7479C150.641 24.7479 150.895 24.7593 151.175 24.782C151.463 24.7972 151.702 24.8237 151.891 24.8615V28.6449C151.717 28.5843 151.44 28.5313 151.062 28.4859C150.691 28.4328 150.331 28.4063 149.982 28.4063C149.233 28.4063 148.558 28.5692 147.96 28.8949C147.369 29.213 146.903 29.6561 146.563 30.2242C146.222 30.7923 146.051 31.4474 146.051 32.1897V42.4492H141.938ZM165.892 35.1097V24.9979H170.005V42.4492H166.017V39.3475H165.835C165.441 40.3246 164.793 41.1237 163.892 41.7448C162.998 42.3659 161.896 42.6764 160.586 42.6764C159.442 42.6764 158.431 42.4227 157.552 41.9152C156.681 41.4002 156 40.6541 155.507 39.677C155.015 38.6923 154.769 37.5032 154.769 36.1095V24.9979H158.882V35.4732C158.882 36.5791 159.185 37.4577 159.791 38.1091C160.396 38.7605 161.192 39.0862 162.176 39.0862C162.782 39.0862 163.369 38.9385 163.937 38.6431C164.506 38.3477 164.971 37.9084 165.335 37.3252C165.706 36.7344 165.892 35.9959 165.892 35.1097Z" fill="#1F2938"/>
<path d="M14.2665 15.7006H20.5156L26.5328 27.0648H26.7905L32.8076 15.7006H39.0567L29.4318 32.7599V42.0884H23.8914V32.7599L14.2665 15.7006Z" fill="white"/>
</svg>
