<svg width="217" height="54" viewBox="0 0 217 54" fill="none" xmlns="http://www.w3.org/2000/svg">
<path d="M40.5356 32.4783C30.6795 32.5253 29.0851 38.3051 28.5538 43.1922L28.3123 45.3537H26.3312L26.0897 43.1922C25.5583 38.3051 23.9156 32.5253 14.3976 32.4783C12.8033 29.2827 12.1269 26.6982 12.1269 23.7848C12.1269 16.5013 18.2629 9.68738 27.3458 9.68738C36.4289 9.68738 42.4682 16.4541 42.4682 23.832C42.4682 26.6982 42.1783 29.2827 40.5356 32.4783ZM27.2493 0.853027C12.2719 0.853027 0 12.7889 0 27.4029C0 42.0643 12.2719 54 27.2493 54C42.3715 54 54.5951 42.0643 54.5951 27.4029C54.5951 12.7889 42.3715 0.853027 27.2493 0.853027Z" fill="#29B24A"/>
<path d="M79.0676 43.064V39.9158L87.4197 31.7282C88.2185 30.9216 88.8841 30.205 89.4166 29.5785C89.9492 28.952 90.3486 28.3451 90.6148 27.7577C90.8811 27.1704 91.0142 26.5439 91.0142 25.8782C91.0142 25.1186 90.8419 24.4686 90.4974 23.9283C90.1528 23.3801 89.679 22.9572 89.076 22.6596C88.473 22.362 87.7877 22.2132 87.0203 22.2132C86.2293 22.2132 85.5363 22.3777 84.9411 22.7066C84.3459 23.0277 83.8839 23.4858 83.5549 24.081C83.2339 24.6761 83.0733 25.3849 83.0733 26.2072H78.9267C78.9267 24.6801 79.2752 23.3527 79.9721 22.225C80.6691 21.0972 81.6285 20.2241 82.8501 19.6054C84.0796 18.9867 85.4893 18.6774 87.079 18.6774C88.6923 18.6774 90.1097 18.9789 91.3314 19.5819C92.5531 20.1849 93.5007 21.0111 94.1741 22.0605C94.8555 23.1099 95.1961 24.3081 95.1961 25.655C95.1961 26.5556 95.0238 27.4406 94.6793 28.3098C94.3347 29.1791 93.7278 30.1424 92.8585 31.1996C91.9971 32.2568 90.7871 33.5372 89.2287 35.0408L85.082 39.258V39.4224H95.5603V43.064H79.0676ZM115.661 19.0063V22.6596H104.549V43.064H100.191V19.0063H115.661ZM119.883 19.0063H124.206V35.405H124.429L135.742 19.0063H139.653V43.064H135.295V26.677H135.096L123.748 43.064H119.883V19.0063ZM165.531 27.1234H161.138C161.012 26.4029 160.781 25.7647 160.445 25.2087C160.108 24.6448 159.689 24.1671 159.188 23.7755C158.687 23.384 158.115 23.0903 157.473 22.8945C156.838 22.6909 156.153 22.5891 155.417 22.5891C154.109 22.5891 152.95 22.918 151.94 23.5758C150.93 24.2258 150.139 25.1813 149.567 26.4421C148.995 27.6951 148.709 29.2261 148.709 31.0351C148.709 32.8755 148.995 34.4261 149.567 35.6869C150.147 36.9399 150.937 37.8875 151.94 38.5297C152.95 39.164 154.105 39.4812 155.405 39.4812C156.126 39.4812 156.799 39.3872 157.426 39.1992C158.06 39.0035 158.628 38.7176 159.129 38.3417C159.638 37.9658 160.065 37.5038 160.409 36.9556C160.762 36.4074 161.005 35.7809 161.138 35.0761L165.531 35.0996C165.367 36.2429 165.01 37.3158 164.462 38.3182C163.922 39.3206 163.213 40.2056 162.336 40.973C161.459 41.7326 160.433 42.3278 159.258 42.7585C158.083 43.1814 156.78 43.3929 155.346 43.3929C153.232 43.3929 151.345 42.9034 149.684 41.9245C148.024 40.9456 146.716 39.5321 145.761 37.6839C144.806 35.8357 144.328 33.6195 144.328 31.0351C144.328 28.443 144.809 26.2267 145.773 24.3864C146.736 22.5382 148.048 21.1247 149.708 20.1457C151.368 19.1668 153.248 18.6774 155.346 18.6774C156.686 18.6774 157.931 18.8653 159.082 19.2412C160.233 19.6171 161.259 20.1692 162.16 20.8976C163.06 21.618 163.8 22.503 164.38 23.5524C164.967 24.5939 165.351 25.7843 165.531 27.1234Z" fill="#1F2938"/>
</svg>
