<svg width="174" height="53" viewBox="0 0 174 53" fill="none" xmlns="http://www.w3.org/2000/svg">
<circle cx="26.4373" cy="26.5627" r="26.4373" fill="#A070FF"/>
<path d="M17.6213 37.8081V34.7419L28.4398 19.9114H17.6322V15.5405H35.2462V18.6067L24.4277 33.4372H35.2353V37.8081H17.6213Z" fill="white"/>
<path d="M74.5593 40.7539V38.1385L86.4477 21.0871H74.4914V17.5659H91.6559V20.1813L79.7789 37.2327H91.7239V40.7539H74.5593ZM103.561 41.0936C101.863 41.0936 100.391 40.7199 99.1457 39.9727C97.9003 39.2254 96.9341 38.18 96.2472 36.8364C95.5679 35.4928 95.2282 33.9228 95.2282 32.1263C95.2282 30.3299 95.5679 28.7561 96.2472 27.405C96.9341 26.0538 97.9003 25.0046 99.1457 24.2574C100.391 23.5101 101.863 23.1365 103.561 23.1365C105.26 23.1365 106.732 23.5101 107.977 24.2574C109.223 25.0046 110.185 26.0538 110.864 27.405C111.551 28.7561 111.895 30.3299 111.895 32.1263C111.895 33.9228 111.551 35.4928 110.864 36.8364C110.185 38.18 109.223 39.2254 107.977 39.9727C106.732 40.7199 105.26 41.0936 103.561 41.0936ZM103.584 37.8101C104.505 37.8101 105.275 37.5573 105.894 37.0515C106.513 36.5382 106.973 35.8514 107.275 34.9909C107.585 34.1304 107.739 33.1718 107.739 32.115C107.739 31.0507 107.585 30.0883 107.275 29.2278C106.973 28.3598 106.513 27.6691 105.894 27.1559C105.275 26.6426 104.505 26.386 103.584 26.386C102.641 26.386 101.856 26.6426 101.229 27.1559C100.61 27.6691 100.146 28.3598 99.8364 29.2278C99.5345 30.0883 99.3835 31.0507 99.3835 32.115C99.3835 33.1718 99.5345 34.1304 99.8364 34.9909C100.146 35.8514 100.61 36.5382 101.229 37.0515C101.856 37.5573 102.641 37.8101 103.584 37.8101ZM123.141 41.0936C121.442 41.0936 119.97 40.7199 118.725 39.9727C117.479 39.2254 116.513 38.18 115.826 36.8364C115.147 35.4928 114.807 33.9228 114.807 32.1263C114.807 30.3299 115.147 28.7561 115.826 27.405C116.513 26.0538 117.479 25.0046 118.725 24.2574C119.97 23.5101 121.442 23.1365 123.141 23.1365C124.839 23.1365 126.311 23.5101 127.556 24.2574C128.802 25.0046 129.764 26.0538 130.443 27.405C131.13 28.7561 131.474 30.3299 131.474 32.1263C131.474 33.9228 131.13 35.4928 130.443 36.8364C129.764 38.18 128.802 39.2254 127.556 39.9727C126.311 40.7199 124.839 41.0936 123.141 41.0936ZM123.163 37.8101C124.084 37.8101 124.854 37.5573 125.473 37.0515C126.092 36.5382 126.552 35.8514 126.854 34.9909C127.164 34.1304 127.318 33.1718 127.318 32.115C127.318 31.0507 127.164 30.0883 126.854 29.2278C126.552 28.3598 126.092 27.6691 125.473 27.1559C124.854 26.6426 124.084 26.386 123.163 26.386C122.22 26.386 121.435 26.6426 120.808 27.1559C120.189 27.6691 119.725 28.3598 119.416 29.2278C119.114 30.0883 118.963 31.0507 118.963 32.115C118.963 33.1718 119.114 34.1304 119.416 34.9909C119.725 35.8514 120.189 36.5382 120.808 37.0515C121.435 37.5573 122.22 37.8101 123.163 37.8101ZM139.232 30.5639V40.7539H135.134V23.3629H139.051V26.318H139.255C139.655 25.3443 140.293 24.5706 141.169 23.997C142.052 23.4233 143.142 23.1365 144.441 23.1365C145.641 23.1365 146.686 23.3931 147.577 23.9064C148.475 24.4196 149.17 25.1631 149.66 26.1369C150.158 27.1106 150.404 28.2919 150.396 29.6807V40.7539H146.298V30.3148C146.298 29.1524 145.996 28.2428 145.392 27.5861C144.795 26.9294 143.969 26.6011 142.912 26.6011C142.195 26.6011 141.557 26.7596 140.999 27.0766C140.448 27.3861 140.014 27.8352 139.697 28.424C139.387 29.0127 139.232 29.726 139.232 30.5639Z" fill="#1F2938"/>
</svg>
