<svg width="62" height="64" viewBox="0 0 62 64" fill="none" xmlns="http://www.w3.org/2000/svg">
<rect x="0.181641" width="61.6252" height="64" rx="30.8126" fill="white"/>
<path d="M25.0453 41V38.7159L31.1049 32.7756C31.6845 32.1903 32.1674 31.6705 32.5538 31.2159C32.9402 30.7614 33.2299 30.321 33.4231 29.8949C33.6163 29.4687 33.7129 29.0142 33.7129 28.5312C33.7129 27.9801 33.5879 27.5085 33.3379 27.1165C33.0879 26.7188 32.7441 26.4119 32.3066 26.196C31.8691 25.9801 31.372 25.8722 30.8152 25.8722C30.2413 25.8722 29.7385 25.9915 29.3066 26.2301C28.8748 26.4631 28.5396 26.7955 28.301 27.2273C28.068 27.6591 27.9515 28.1733 27.9515 28.7699H24.943C24.943 27.6619 25.1958 26.6989 25.7015 25.8807C26.2072 25.0625 26.9032 24.429 27.7896 23.9801C28.6816 23.5312 29.7044 23.3068 30.8578 23.3068C32.0282 23.3068 33.0566 23.5256 33.943 23.9631C34.8294 24.4006 35.5169 25 36.0055 25.7614C36.4998 26.5227 36.747 27.392 36.747 28.3693C36.747 29.0227 36.622 29.6648 36.372 30.2955C36.122 30.9261 35.6816 31.625 35.051 32.392C34.426 33.1591 33.5481 34.0881 32.4174 35.179L29.4089 38.2386V38.358H37.0112V41H25.0453Z" fill="#999EA5"/>
</svg>
