<svg width="62" height="64" viewBox="0 0 62 64" fill="none" xmlns="http://www.w3.org/2000/svg">
<rect x="0.179688" width="61.6252" height="64" rx="30.8126" fill="white"/>
<path d="M30.8075 41.2386C29.5803 41.2386 28.4893 41.0284 27.5348 40.608C26.5859 40.1875 25.8359 39.6023 25.2848 38.8523C24.7337 38.1023 24.4411 37.2358 24.407 36.2528H27.6115C27.6399 36.7244 27.7962 37.1364 28.0803 37.4886C28.3643 37.8352 28.7422 38.1051 29.2138 38.2983C29.6854 38.4915 30.2138 38.5881 30.799 38.5881C31.424 38.5881 31.978 38.4801 32.4609 38.2642C32.9439 38.0426 33.3217 37.7358 33.5945 37.3438C33.8672 36.9517 34.0007 36.5 33.995 35.9886C34.0007 35.4602 33.8643 34.9943 33.5859 34.5909C33.3075 34.1875 32.9041 33.8722 32.3757 33.6449C31.853 33.4176 31.2223 33.304 30.4837 33.304H28.9411V30.8665H30.4837C31.0916 30.8665 31.6229 30.7614 32.0774 30.5511C32.5376 30.3409 32.8984 30.0455 33.1598 29.6648C33.4212 29.2784 33.549 28.8324 33.5433 28.3267C33.549 27.8324 33.4382 27.4034 33.2109 27.0398C32.9893 26.6705 32.674 26.3835 32.2649 26.179C31.8615 25.9744 31.3871 25.8722 30.8416 25.8722C30.3075 25.8722 29.8132 25.9687 29.3587 26.1619C28.9041 26.3551 28.5376 26.6307 28.2592 26.9886C27.9808 27.3409 27.8331 27.7614 27.8161 28.25H24.7734C24.7962 27.2727 25.0774 26.4148 25.6172 25.6761C26.1626 24.9318 26.8899 24.3523 27.799 23.9375C28.7081 23.517 29.728 23.3068 30.8587 23.3068C32.0234 23.3068 33.0348 23.5256 33.8928 23.9631C34.7564 24.3949 35.424 24.9773 35.8956 25.7102C36.3672 26.4432 36.603 27.2528 36.603 28.1392C36.6087 29.1222 36.3189 29.946 35.7337 30.6108C35.1541 31.2756 34.3928 31.7102 33.4496 31.9148V32.0511C34.6768 32.2216 35.6172 32.6761 36.2706 33.4148C36.9297 34.1477 37.2564 35.0597 37.2507 36.1506C37.2507 37.1278 36.9723 38.0028 36.4155 38.7756C35.8643 39.5426 35.103 40.1449 34.1314 40.5824C33.1655 41.0199 32.0575 41.2386 30.8075 41.2386Z" fill="#999EA5"/>
</svg>
