<svg width="15" height="20" viewBox="0 0 15 20" fill="none" xmlns="http://www.w3.org/2000/svg">
<path d="M7.5 0C5.5116 0.00247163 3.60532 0.831069 2.1993 2.30403C0.793293 3.777 0.00235928 5.77406 0 7.85714C0 14.5801 6.81818 19.6582 7.10849 19.871C7.2233 19.955 7.35996 20 7.5 20C7.64004 20 7.7767 19.955 7.89151 19.871C8.18182 19.6582 15 14.5801 15 7.85714C14.9976 5.77406 14.2067 3.777 12.8007 2.30403C11.3947 0.831069 9.4884 0.00247139 7.5 0ZM7.5005 5.00026C8.0399 5.00026 8.56719 5.16783 9.01569 5.48177C9.46419 5.79572 9.81375 6.24195 10.0202 6.76402C10.2266 7.2861 10.2806 7.86057 10.1754 8.4148C10.0701 8.96903 9.81039 9.47813 9.42897 9.87771C9.04756 10.2773 8.5616 10.5494 8.03256 10.6596C7.50352 10.7699 6.95516 10.7133 6.45682 10.4971C5.95847 10.2808 5.53253 9.9146 5.23286 9.44475C4.93318 8.97489 4.77323 8.42249 4.77323 7.8574C4.77322 7.48219 4.84375 7.11066 4.98081 6.76401C5.11786 6.41736 5.31875 6.10239 5.572 5.83707C5.82526 5.57176 6.12591 5.36131 6.45681 5.21772C6.7877 5.07414 7.14235 5.00025 7.5005 5.00026Z" fill="#E31E24"/>
</svg>
