<svg width="18" height="16" viewBox="0 0 18 16" fill="none" xmlns="http://www.w3.org/2000/svg">
<path d="M0.265821 7.07033C2.06635 6.03614 4.07623 5.17294 5.95416 4.30536C9.18493 2.88433 12.4285 1.48792 15.7049 0.187885C16.3423 -0.0336154 17.4877 -0.250203 17.6 0.734856C17.5385 2.12925 17.2855 3.51549 17.112 4.90172C16.6716 7.95018 16.1625 10.9882 15.6661 14.0266C15.4951 15.0387 14.2792 15.5626 13.5013 14.9149C11.6317 13.5981 9.74775 12.294 7.90203 10.9466C7.29743 10.3059 7.85809 9.38592 8.39805 8.92844C9.9379 7.34599 11.5709 6.00151 13.0303 4.33728C13.424 3.34601 12.2608 4.18142 11.8772 4.43742C9.76909 5.95228 7.71262 7.55962 5.49006 8.89098C4.35478 9.54266 3.03159 8.98575 1.89683 8.62212C0.879386 8.18283 -0.611573 7.74025 0.265719 7.07046L0.265821 7.07033Z" fill="#E31E24"/>
</svg>
