<svg width="17" height="17" viewBox="0 0 17 17" fill="none" xmlns="http://www.w3.org/2000/svg">
<g clip-path="url(#clip0_270_1370)">
<path d="M14.474 2.4687C12.877 0.877678 10.7525 0.0009079 8.49144 0C6.23544 0 4.10759 0.875992 2.50009 2.46663C0.88974 4.05999 0.0020752 6.17747 0 8.42127V8.42387V8.42542C0.000259399 9.78351 0.357063 11.1535 1.03436 12.4041L0.0232163 17L4.67204 15.9426C5.84946 16.5359 7.16319 16.8488 8.4882 16.8493H8.49157C10.7472 16.8493 12.875 15.9732 14.4828 14.3824C16.0946 12.7877 16.9826 10.673 16.9837 8.42776C16.9843 6.19835 16.0931 4.08204 14.474 2.4687ZM8.49144 15.5225H8.48846C7.29872 15.5219 6.11988 15.2232 5.07956 14.6584L4.85972 14.5391L1.76846 15.2422L2.43991 12.1906L2.31047 11.9674C1.6669 10.8576 1.32683 9.63241 1.32683 8.424C1.32929 4.51264 4.54299 1.32683 8.49118 1.32683C10.3985 1.32761 12.1907 2.06702 13.5375 3.40864C14.9047 4.771 15.6573 6.55334 15.6567 8.42737C15.6551 12.3396 12.4408 15.5225 8.49144 15.5225Z" fill="#E31E24"/>
<path d="M6.17939 4.71045H5.80715C5.67758 4.71045 5.46721 4.75896 5.28926 4.9526C5.11118 5.14637 4.60938 5.61472 4.60938 6.56723C4.60938 7.51974 5.30547 8.44009 5.40249 8.5694C5.49963 8.69859 6.74618 10.7157 8.72047 11.4917C10.3613 12.1365 10.6953 12.0083 11.0513 11.976C11.4075 11.9438 12.2006 11.5078 12.3624 11.0557C12.5243 10.6037 12.5243 10.2162 12.4758 10.1353C12.4272 10.0546 12.2976 10.0062 12.1034 9.90946C11.9091 9.81258 10.9571 9.33632 10.7791 9.2716C10.601 9.20714 10.4715 9.17484 10.342 9.36874C10.2124 9.56226 9.83096 10.01 9.7176 10.1392C9.60437 10.2685 9.49101 10.2847 9.29672 10.1878C9.10243 10.0907 8.48325 9.88261 7.74123 9.22322C7.16368 8.71 6.76291 8.05553 6.64955 7.86176C6.53632 7.66812 6.63749 7.56332 6.73489 7.4667C6.82218 7.38006 6.94008 7.26151 7.03722 7.14854C7.13424 7.03545 7.16187 6.95477 7.22672 6.82559C7.29144 6.69641 7.25901 6.58331 7.2105 6.48656C7.16187 6.38967 6.78911 5.43236 6.61635 5.04948H6.61648C6.47096 4.72705 6.31778 4.71616 6.17939 4.71045Z" fill="#E31E24"/>
</g>
<defs>
<clipPath id="clip0_270_1370">
<rect width="17" height="17" fill="white"/>
</clipPath>
</defs>
</svg>
