<svg width="24" height="24" viewBox="0 0 24 24" fill="none" xmlns="http://www.w3.org/2000/svg">
<path d="M22.41 10.5904L20.36 8.54041V5.63041C20.36 5.09998 20.1493 4.59127 19.7742 4.2162C19.3991 3.84113 18.8904 3.63041 18.36 3.63041H15.46L13.41 1.63041C13.0353 1.25791 12.5284 1.04883 12 1.04883C11.4716 1.04883 10.9647 1.25791 10.59 1.63041L8.54 3.64041H5.63C5.09957 3.64041 4.59086 3.85113 4.21579 4.2262C3.84071 4.60127 3.63 5.10998 3.63 5.64041V8.54041L1.63 10.5904C1.43677 10.7719 1.28157 10.9901 1.17342 11.2322C1.06526 11.4742 1.00631 11.7354 1 12.0004C0.999579 12.5286 1.20808 13.0354 1.58 13.4104L3.64 15.4604V18.3704C3.64 18.9008 3.85071 19.4096 4.22579 19.7846C4.60086 20.1597 5.10957 20.3704 5.64 20.3704H8.54L10.59 22.4204C10.965 22.7923 11.4719 23.0008 12 23.0004C12.5281 23.0008 13.035 22.7923 13.41 22.4204L15.46 20.3604H18.37C18.9004 20.3604 19.4091 20.1497 19.7842 19.7746C20.1593 19.3996 20.37 18.8908 20.37 18.3604V15.4604L22.42 13.4104C22.7925 13.0357 23.0016 12.5288 23.0016 12.0004C23.0016 11.472 22.7925 10.9651 22.42 10.5904H22.41ZM18.36 14.6404V18.3604H14.64L12 21.0004L9.36 18.3604H5.64V14.6404L3 12.0004L5.64 9.36041V5.64041H9.36L12 3.00041L14.64 5.64041H18.36V9.36041L21 12.0004L18.36 14.6404Z" fill="#E31E24"/>
<path d="M14.24 7.85005L8.24005 14.8501C8.15469 14.9499 8.08983 15.0655 8.04916 15.1904C8.00849 15.3152 7.99282 15.4469 8.00303 15.5778C8.02366 15.8423 8.14849 16.0877 8.35005 16.2601C8.55162 16.4324 8.81341 16.5177 9.07783 16.4971C9.34226 16.4764 9.58766 16.3516 9.76005 16.1501L15.7601 9.15005C15.9324 8.94849 16.0177 8.6867 15.9971 8.42227C15.9764 8.15784 15.8516 7.91244 15.65 7.74005C15.4485 7.56766 15.1867 7.4824 14.9223 7.50303C14.6578 7.52366 14.4124 7.64849 14.24 7.85005Z" fill="#E31E24"/>
<path d="M10.9007 10.4499C11.1868 10.3672 11.4418 10.2013 11.6332 9.97323C11.8247 9.74517 11.9439 9.46528 11.9758 9.16922C12.0076 8.87316 11.9506 8.57431 11.8121 8.31075C11.6735 8.04718 11.4596 7.83083 11.1977 7.68923C10.9357 7.54763 10.6375 7.48721 10.3411 7.51565C10.0447 7.54408 9.76347 7.6601 9.53322 7.84892C9.30297 8.03774 9.13412 8.29082 9.04819 8.57592C8.96226 8.86102 8.96313 9.16525 9.05069 9.44986C9.16856 9.82433 9.42763 10.1382 9.77299 10.3249C10.1183 10.5115 10.5228 10.5564 10.9007 10.4499Z" fill="#E31E24"/>
<path d="M13.0993 13.5498C12.8132 13.6324 12.5582 13.7984 12.3668 14.0264C12.1753 14.2545 12.0561 14.5344 12.0242 14.8304C11.9924 15.1265 12.0494 15.4253 12.1879 15.6889C12.3265 15.9525 12.5404 16.1688 12.8024 16.3104C13.0643 16.452 13.3625 16.5125 13.6589 16.484C13.9553 16.4556 14.2365 16.3396 14.4668 16.1507C14.697 15.9619 14.8659 15.7088 14.9518 15.4237C15.0377 15.1386 15.0369 14.8344 14.9493 14.5498C14.8314 14.1753 14.5724 13.8615 14.227 13.6748C13.8817 13.4881 13.4772 13.4433 13.0993 13.5498Z" fill="#E31E24"/>
</svg>
