<svg width="240" height="285" viewBox="0 0 240 285" fill="none" xmlns="http://www.w3.org/2000/svg">
<mask id="mask0_270_2026" style="mask-type:alpha" maskUnits="userSpaceOnUse" x="0" y="0" width="240" height="285">
<rect width="240" height="285" rx="25" fill="#E1F7F9"/>
</mask>
<g mask="url(#mask0_270_2026)">
<path d="M-442.76 1195.22L-389.824 1203.8C-6.55742 1265.91 302.858 894.145 172.189 528.526L153.41 475.982C30.5896 132.324 323.068 -216.489 682.875 -155.465L808.706 -134.124C1069.04 -89.9701 1295.82 -314.458 1254.32 -575.228V-575.228" stroke="white"/>
<path d="M-415.498 1218.1L-362.562 1226.68C20.7043 1288.8 330.12 917.03 199.451 551.411L180.672 498.867C57.8513 155.209 350.33 -193.604 710.137 -132.58L835.967 -111.238C1096.3 -67.0848 1323.09 -291.573 1281.58 -552.343V-552.343" stroke="white"/>
<path d="M-388.233 1240.99L-335.296 1249.57C47.9699 1311.68 357.386 939.913 226.716 574.294L207.937 521.75C85.1169 178.093 377.595 -170.721 737.403 -109.696L863.233 -88.3551C1123.57 -44.2015 1350.35 -268.69 1308.85 -529.46V-529.46" stroke="white"/>
<path d="M-360.973 1263.87L-308.036 1272.45C75.2297 1334.57 384.646 962.798 253.976 597.18L235.197 544.635C112.377 200.978 404.855 -147.836 764.663 -86.8111L890.493 -65.4699C1150.83 -21.3163 1377.61 -245.804 1336.11 -506.575V-506.575" stroke="white"/>
<path d="M-333.707 1286.75L-280.771 1295.33C102.495 1357.45 411.911 985.682 281.242 620.063L262.463 567.519C139.642 223.861 432.121 -124.952 791.928 -63.9278L917.758 -42.5866C1178.09 1.56701 1404.88 -222.921 1363.37 -483.691V-483.691" stroke="white"/>
<path d="M-306.444 1309.64L-253.507 1318.22C129.759 1380.34 439.175 1008.57 308.505 642.951L289.727 590.406C166.906 246.749 459.384 -102.065 819.192 -41.0401L945.022 -19.6989C1205.36 24.4547 1432.14 -200.033 1390.64 -460.804V-460.804" stroke="white"/>
<path d="M-279.182 1332.52L-226.245 1341.1C157.021 1403.22 466.437 1031.45 335.767 665.832L316.988 613.288C194.168 269.63 486.646 -79.183 846.454 -18.1585L972.284 3.1827C1232.62 47.3363 1459.4 -177.152 1417.9 -437.922V-437.922" stroke="white"/>
<path d="M-251.918 1355.41L-198.982 1363.99C184.284 1426.11 493.7 1054.33 363.031 688.716L344.252 636.172C221.431 292.514 513.91 -56.2992 873.717 4.72526L999.548 26.0665C1259.88 70.2201 1486.67 -154.268 1445.16 -415.038V-415.038" stroke="white"/>
<path d="M-224.656 1378.29L-171.72 1386.87C211.546 1448.99 520.962 1077.22 390.293 711.602L371.514 659.058C248.693 315.401 541.172 -33.4128 900.979 27.6117L1026.81 48.953C1287.14 93.1066 1513.93 -131.382 1472.42 -392.152V-392.152" stroke="white"/>
<path d="M-197.393 1401.18L-144.456 1409.76C238.81 1471.87 548.226 1100.1 417.556 734.485L398.777 681.94C275.957 338.283 568.435 -10.5304 928.243 50.4941L1054.07 71.8353C1314.41 115.989 1541.19 -108.499 1499.69 -369.269V-369.269" stroke="white"/>
<path d="M-170.129 1424.06L-117.193 1432.64C266.073 1494.76 575.489 1122.99 444.82 757.371L426.041 704.827C303.22 361.17 595.699 12.356 955.506 73.3805L1081.34 94.7218C1341.67 138.875 1568.45 -85.6128 1526.95 -346.383V-346.383" stroke="white"/>
<path d="M-142.867 1446.95L-89.931 1455.52C293.335 1517.64 602.751 1145.87 472.082 780.254L453.303 727.709C330.482 384.052 622.961 35.2384 982.768 96.2629L1108.6 117.604C1368.93 161.758 1595.72 -62.7304 1554.21 -323.501V-323.501" stroke="white"/>
<path d="M-115.604 1469.83L-62.6673 1478.41C320.599 1540.53 630.015 1168.76 499.345 803.138L480.566 750.594C357.746 406.936 650.224 58.1226 1010.03 119.147L1135.86 140.488C1396.2 184.642 1622.98 -39.8462 1581.48 -300.616V-300.616" stroke="white"/>
<path d="M-88.3401 1492.71L-35.4036 1501.29C347.863 1563.41 657.278 1191.64 526.609 826.023L507.83 773.479C385.009 429.822 677.488 81.008 1037.3 142.033L1163.13 163.374C1423.46 207.527 1650.24 -16.9608 1608.74 -277.731V-277.731" stroke="white"/>
<path d="M-61.0764 1515.6L-8.13996 1524.18C375.126 1586.3 684.542 1214.53 553.873 848.907L535.094 796.363C412.273 452.705 704.752 103.892 1064.56 164.916L1190.39 186.258C1450.72 230.411 1677.51 5.92313 1636 -254.847V-254.847" stroke="white"/>
<path d="M-34.4573 1537.94L18.4792 1546.52C401.745 1608.64 711.161 1236.87 580.492 871.25L561.713 818.706C438.892 475.048 731.371 126.235 1091.18 187.259L1217.01 208.6C1477.34 252.754 1704.13 28.2659 1662.62 -232.504V-232.504" stroke="white"/>
<path d="M-7.83811 1560.28L45.0983 1568.86C428.364 1630.98 737.78 1259.21 607.111 893.593L588.332 841.049C465.511 497.391 757.99 148.578 1117.8 209.602L1243.63 230.944C1503.96 275.097 1730.75 50.609 1689.24 -210.161V-210.161" stroke="white"/>
<path d="M18.7752 1582.63L71.7116 1591.21C454.978 1653.33 764.394 1281.56 633.724 915.937L614.945 863.393C492.125 519.735 784.603 170.922 1144.41 231.946L1270.24 253.287C1530.58 297.441 1757.36 72.9528 1715.85 -187.817V-187.817" stroke="white"/>
<path d="M45.3943 1604.97L98.3307 1613.55C481.597 1675.67 791.013 1303.9 660.343 938.278L641.564 885.734C518.744 542.077 811.222 193.263 1171.03 254.288L1296.86 275.629C1557.19 319.782 1783.98 95.2942 1742.47 -165.476V-165.476" stroke="white"/>
<path d="M72.0135 1627.31L124.95 1635.89C508.216 1698.01 817.632 1326.24 686.963 960.621L668.184 908.077C545.363 564.419 837.842 215.606 1197.65 276.63L1323.48 297.971C1583.81 342.125 1810.6 117.637 1769.09 -143.133V-143.133" stroke="white"/>
<path d="M98.6326 1649.66L151.569 1658.24C534.835 1720.35 844.251 1348.58 713.582 982.966L694.803 930.422C571.982 586.764 864.461 237.951 1224.27 298.975L1350.1 320.316C1610.43 364.47 1837.22 139.982 1795.71 -120.788V-120.788" stroke="white"/>
<path d="M125.246 1672L178.182 1680.58C561.448 1742.7 870.864 1370.92 740.195 1005.31L721.416 952.762C598.595 609.104 891.074 260.291 1250.88 321.315L1376.71 342.656C1637.05 386.81 1863.83 162.322 1822.33 -98.4482V-98.4482" stroke="white"/>
<path d="M151.867 1694.34L204.803 1702.92C588.07 1765.04 897.485 1393.27 766.816 1027.65L748.037 975.105C625.217 631.447 917.695 282.634 1277.5 343.658L1403.33 364.999C1663.67 409.153 1890.45 184.665 1848.95 -76.1053V-76.1053" stroke="white"/>
<path d="M178.486 1716.68L231.423 1725.26C614.689 1787.38 924.105 1415.61 793.435 1049.99L774.656 997.448C651.836 653.791 944.314 304.977 1304.12 366.002L1429.95 387.343C1690.29 431.496 1917.07 207.008 1875.57 -53.762V-53.762" stroke="white"/>
<path d="M205.103 1739.03L258.04 1747.61C641.306 1809.72 950.722 1437.95 820.052 1072.33L801.273 1019.79C678.453 676.133 970.931 327.32 1330.74 388.344L1456.57 409.685C1716.9 453.839 1943.69 229.351 1902.18 -31.4194V-31.4194" stroke="white"/>
<path d="M231.72 1761.37L284.657 1769.95C667.923 1832.07 977.339 1460.3 846.67 1094.68L827.891 1042.13C705.07 698.475 997.549 349.662 1357.36 410.686L1483.19 432.028C1743.52 476.181 1970.3 251.693 1928.8 -9.07702V-9.07702" stroke="white"/>
<path d="M258.338 1783.71L311.274 1792.29C694.54 1854.41 1003.96 1482.64 873.287 1117.02L854.508 1064.48C731.687 720.818 1024.17 372.005 1383.97 433.029L1509.8 454.371C1770.14 498.524 1996.92 274.036 1955.42 13.266V13.266" stroke="white"/>
<path d="M284.955 1806.06L337.891 1814.63C721.157 1876.75 1030.57 1504.98 899.904 1139.36L881.125 1086.82C758.304 743.162 1050.78 394.348 1410.59 455.373L1536.42 476.714C1796.76 520.868 2023.54 296.379 1982.03 35.6093V35.6093" stroke="white"/>
<path d="M311.574 1828.4L364.51 1836.98C747.777 1899.09 1057.19 1527.32 926.523 1161.71L907.744 1109.16C784.924 765.504 1077.4 416.691 1437.21 477.715L1563.04 499.056C1823.37 543.21 2050.16 318.722 2008.65 57.9515V57.9515" stroke="white"/>
</g>
</svg>
