<svg width="240" height="285" viewBox="0 0 240 285" fill="none" xmlns="http://www.w3.org/2000/svg">
<mask id="mask0_270_1954" style="mask-type:alpha" maskUnits="userSpaceOnUse" x="0" y="0" width="240" height="285">
<rect width="240" height="285" rx="25" fill="#E1F7F9"/>
</mask>
<g mask="url(#mask0_270_1954)">
<path d="M-1848.08 1278.6L-1795.14 1287.18C-1411.87 1349.3 -1102.46 977.526 -1233.13 611.907L-1251.91 559.363C-1374.73 215.706 -1082.25 -133.108 -722.441 -72.0832L-596.611 -50.742C-336.276 -6.58839 -109.493 -231.076 -150.997 -491.847V-491.847" stroke="white"/>
<path d="M-1821.46 1300.94L-1768.52 1309.52C-1385.25 1371.64 -1075.84 999.869 -1206.51 634.25L-1225.29 581.706C-1348.11 238.049 -1055.63 -110.765 -695.822 -49.7404L-569.992 -28.3992C-309.657 15.7544 -82.8739 -208.734 -124.378 -469.504V-469.504" stroke="white"/>
<path d="M-1794.84 1323.29L-1741.9 1331.86C-1358.64 1393.98 -1049.22 1022.21 -1179.89 656.593L-1198.67 604.049C-1321.49 260.392 -1029.01 -88.4218 -669.203 -27.3973L-543.373 -6.05607C-283.038 38.0975 -56.2547 -186.391 -97.7589 -447.161V-447.161" stroke="white"/>
<path d="M-1768.23 1345.63L-1715.29 1354.21C-1332.02 1416.33 -1022.61 1044.56 -1153.28 678.937L-1172.05 626.393C-1294.88 282.735 -1002.4 -66.078 -642.59 -5.05355L-516.759 16.2877C-256.425 60.4413 -29.6414 -164.047 -71.1456 -424.817V-424.817" stroke="white"/>
<path d="M-1741.61 1367.97L-1688.67 1376.55C-1305.4 1438.67 -995.988 1066.9 -1126.66 701.279L-1145.44 648.734C-1268.26 305.077 -975.778 -43.7366 -615.971 17.2879L-490.14 38.6291C-229.806 82.7827 -3.0223 -141.705 -44.5265 -402.476V-402.476" stroke="white"/>
<path d="M-1714.99 1390.31L-1662.05 1398.89C-1278.78 1461.01 -969.368 1089.24 -1100.04 723.621L-1118.82 671.077C-1241.64 327.42 -949.159 -21.394 -589.351 39.6305L-463.521 60.9718C-203.186 105.125 23.5968 -119.363 -17.9073 -380.133V-380.133" stroke="white"/>
<path d="M-1688.37 1412.66L-1635.43 1421.24C-1252.17 1483.36 -942.749 1111.58 -1073.42 745.966L-1092.2 693.422C-1215.02 349.765 -922.54 0.951015 -562.732 61.9755L-436.902 83.3167C-176.567 127.47 50.216 -97.0178 8.71181 -357.788V-357.788" stroke="white"/>
<path d="M-1661.75 1435L-1608.82 1443.58C-1225.55 1505.7 -916.136 1133.93 -1046.81 768.306L-1065.58 715.762C-1188.4 372.105 -895.926 23.2911 -536.119 84.3156L-410.289 105.657C-149.954 149.81 76.8293 -74.6777 35.3251 -335.448V-335.448" stroke="white"/>
<path d="M-1635.13 1457.34L-1582.2 1465.92C-1198.93 1528.04 -889.515 1156.27 -1020.18 790.649L-1038.96 738.105C-1161.78 394.447 -869.305 45.634 -509.498 106.658L-383.668 128C-123.333 172.153 103.45 -52.3348 61.9462 -313.105V-313.105" stroke="white"/>
<path d="M-1608.52 1479.68L-1555.58 1488.26C-1172.31 1550.38 -862.898 1178.61 -993.567 812.993L-1012.35 760.448C-1135.17 416.791 -842.688 67.9774 -482.881 129.002L-357.05 150.343C-96.7157 194.497 130.068 -29.9914 88.5634 -290.762V-290.762" stroke="white"/>
<path d="M-1581.9 1502.03L-1528.96 1510.61C-1145.69 1572.72 -836.279 1200.95 -966.948 835.335L-985.727 782.791C-1108.55 439.133 -816.069 90.3199 -456.262 151.344L-330.431 172.686C-70.0965 216.839 156.687 -7.64889 115.183 -268.419V-268.419" stroke="white"/>
<path d="M-1555.28 1524.37L-1502.34 1532.95C-1119.08 1595.07 -809.661 1223.3 -940.331 857.678L-959.11 805.133C-1081.93 461.476 -789.452 112.662 -429.644 173.687L-303.814 195.028C-43.4793 239.182 183.304 14.6935 141.8 -246.077V-246.077" stroke="white"/>
<path d="M-1528.66 1546.71L-1475.73 1555.29C-1092.46 1617.41 -783.044 1245.64 -913.714 880.021L-932.492 827.476C-1055.31 483.819 -762.835 135.005 -403.027 196.03L-277.197 217.371C-16.8622 261.525 209.921 37.0365 168.417 -223.734V-223.734" stroke="white"/>
<path d="M-1502.05 1569.06L-1449.11 1577.64C-1065.84 1639.75 -756.427 1267.98 -887.096 902.364L-905.875 849.82C-1028.7 506.162 -736.217 157.349 -376.41 218.373L-250.58 239.714C9.75503 283.868 236.538 59.3798 195.034 -201.39V-201.39" stroke="white"/>
<path d="M-1475.43 1591.4L-1422.49 1599.98C-1039.22 1662.1 -729.808 1290.32 -860.477 924.706L-879.256 872.162C-1002.08 528.504 -709.598 179.691 -349.791 240.715L-223.96 262.057C36.3742 306.21 263.157 81.7221 221.653 -179.048V-179.048" stroke="white"/>
</g>
</svg>
