<svg width="240" height="285" viewBox="0 0 240 285" fill="none" xmlns="http://www.w3.org/2000/svg">
<mask id="mask0_270_1990" style="mask-type:alpha" maskUnits="userSpaceOnUse" x="0" y="0" width="240" height="285">
<rect width="240" height="285" rx="25" fill="#E1F7F9"/>
</mask>
<g mask="url(#mask0_270_1990)">
<path d="M668.931 1416.9L667.495 1363.29C657.098 975.163 234.178 740.451 -100.684 936.969L-148.808 965.211C-463.556 1149.92 -860.765 927.575 -867.864 562.699L-870.347 435.096C-875.483 171.093 -1138.3 -9.8811 -1386.77 79.4935V79.4935" stroke="white"/>
<path d="M686.337 1385.85L684.901 1332.24C674.505 944.113 251.584 709.402 -83.2777 905.919L-131.402 934.162C-446.15 1118.88 -843.359 896.526 -850.458 531.649L-852.941 404.046C-858.077 140.044 -1120.9 -40.9306 -1369.36 48.444V48.444" stroke="white"/>
<path d="M703.736 1354.8L702.3 1301.19C691.903 913.061 268.983 678.349 -65.8792 874.867L-114.003 903.109C-428.751 1087.82 -825.961 865.473 -833.06 500.597L-835.542 372.993C-840.678 108.991 -1103.5 -71.9833 -1351.96 17.3913V17.3913" stroke="white"/>
<path d="M721.142 1323.75L719.706 1270.14C709.309 882.013 286.389 647.302 -48.473 843.819L-96.5971 872.062C-411.345 1056.78 -808.554 834.426 -815.653 469.549L-818.136 341.946C-823.272 77.9437 -1086.09 -103.031 -1334.56 -13.656V-13.656" stroke="white"/>
<path d="M738.544 1292.7L737.108 1239.09C726.712 850.961 303.791 616.249 -31.0706 812.767L-79.1947 841.009C-393.943 1025.72 -791.152 803.373 -798.251 438.497L-800.734 310.894C-805.87 46.8911 -1068.69 -134.083 -1317.16 -44.7086V-44.7086" stroke="white"/>
<path d="M755.951 1261.65L754.515 1208.04C744.118 819.91 321.197 585.199 -13.6644 781.716L-61.7885 809.958C-376.536 994.672 -773.746 772.323 -780.845 407.446L-783.327 279.843C-788.464 15.8406 -1051.28 -165.134 -1299.75 -75.7591V-75.7591" stroke="white"/>
<path d="M773.349 1230.6L771.913 1176.99C761.516 788.861 338.596 554.149 3.73406 750.667L-44.39 778.909C-359.138 963.622 -756.347 741.273 -763.446 376.396L-765.929 248.793C-771.065 -15.2091 -1033.88 -196.183 -1282.35 -106.809V-106.809" stroke="white"/>
<path d="M790.751 1199.55L789.315 1145.94C778.919 757.811 355.998 523.099 21.1364 719.617L-26.9877 747.859C-341.736 932.572 -738.945 710.223 -746.044 345.346L-748.527 217.743C-753.663 -46.2592 -1016.48 -227.233 -1264.95 -137.859V-137.859" stroke="white"/>
<path d="M808.154 1168.5L806.718 1114.89C796.321 726.761 373.401 492.049 38.5387 688.567L-9.58534 716.809C-324.333 901.522 -721.543 679.173 -728.642 314.297L-731.124 186.694C-736.26 -77.3089 -999.079 -258.283 -1247.55 -168.909V-168.909" stroke="white"/>
<path d="M825.556 1137.45L824.12 1083.84C813.723 695.71 390.803 460.999 55.9411 657.516L7.817 685.759C-306.931 870.472 -704.14 648.123 -711.239 283.246L-713.722 155.643C-718.858 -108.359 -981.677 -289.334 -1230.14 -199.959V-199.959" stroke="white"/>
<path d="M842.962 1106.4L841.526 1052.79C831.13 664.661 408.209 429.949 73.3473 626.467L25.2232 654.709C-289.525 839.422 -686.734 617.073 -693.833 252.197L-696.316 124.594C-701.452 -139.409 -964.271 -320.383 -1212.74 -231.009V-231.009" stroke="white"/>
<path d="M860.361 1075.35L858.925 1021.74C848.528 633.611 425.608 398.899 90.7458 595.417L42.6217 623.659C-272.126 808.372 -669.336 586.023 -676.435 221.146L-678.917 93.5433C-684.053 -170.459 -946.872 -351.433 -1195.34 -262.059V-262.059" stroke="white"/>
<path d="M877.763 1044.3L876.327 990.689C865.93 602.561 443.01 367.849 108.148 564.367L60.024 592.609C-254.724 777.322 -651.933 554.973 -659.032 190.097L-661.515 62.4936C-666.651 -201.509 -929.47 -382.483 -1177.94 -293.109V-293.109" stroke="white"/>
<path d="M895.169 1013.24L893.733 959.637C883.337 571.509 460.416 336.797 125.554 533.315L77.4303 561.557C-237.318 746.27 -634.527 523.921 -641.626 159.044L-644.109 31.4413C-649.245 -232.561 -912.064 -413.535 -1160.53 -324.161V-324.161" stroke="white"/>
<path d="M912.568 982.195L911.132 928.587C900.735 540.459 477.815 305.747 142.953 502.265L94.8287 530.507C-219.919 715.22 -617.129 492.871 -624.228 127.995L-626.71 0.391529C-631.846 -263.611 -894.665 -444.585 -1143.13 -355.211V-355.211" stroke="white"/>
<path d="M929.56 951.879L928.124 898.271C917.727 510.143 494.807 275.431 159.945 471.949L111.821 500.191C-202.927 684.904 -600.136 462.555 -607.235 97.6786L-609.718 -29.9245C-614.854 -293.927 -877.673 -474.901 -1126.14 -385.527V-385.527" stroke="white"/>
<path d="M946.552 921.562L945.116 867.954C934.72 479.826 511.799 245.114 176.937 441.632L128.813 469.874C-185.935 654.587 -583.144 432.238 -590.243 67.3617L-592.726 -60.2414C-597.862 -324.244 -860.681 -505.218 -1109.15 -415.844V-415.844" stroke="white"/>
<path d="M963.544 891.25L962.108 837.642C951.712 449.513 528.791 214.802 193.929 411.319L145.805 439.562C-168.943 624.275 -566.152 401.926 -573.251 37.0492L-575.734 -90.5539C-580.87 -354.556 -843.689 -535.531 -1092.16 -446.156V-446.156" stroke="white"/>
<path d="M980.533 860.933L979.097 807.325C968.7 419.197 545.779 184.486 210.918 381.003L162.794 409.245C-151.954 593.959 -549.164 371.61 -556.263 6.73317L-558.745 -120.87C-563.882 -384.872 -826.701 -565.847 -1075.17 -476.472V-476.472" stroke="white"/>
<path d="M997.525 830.617L996.089 777.009C985.692 388.881 562.772 154.17 227.91 350.687L179.786 378.929C-134.962 563.643 -532.172 341.294 -539.27 -23.583L-541.753 -151.186C-546.889 -415.189 -809.708 -596.163 -1058.18 -506.788V-506.788" stroke="white"/>
<path d="M1014.52 800.301L1013.08 746.693C1002.68 358.565 579.764 123.853 244.902 320.371L196.778 348.613C-117.97 533.326 -515.179 310.977 -522.278 -53.8993L-524.761 -181.502C-529.897 -445.505 -792.716 -626.479 -1041.18 -537.105V-537.105" stroke="white"/>
<path d="M1031.51 769.989L1030.07 716.381C1019.67 328.252 596.752 93.5409 261.89 290.058L213.766 318.301C-100.982 503.014 -498.191 280.665 -505.29 -84.2118L-507.773 -211.815C-512.909 -475.817 -775.728 -656.792 -1024.19 -567.417V-567.417" stroke="white"/>
<path d="M1048.5 739.672L1047.06 686.064C1036.66 297.936 613.744 63.2243 278.882 259.742L230.758 287.984C-83.9895 472.697 -481.199 250.348 -488.298 -114.528L-490.78 -242.131C-495.917 -506.134 -758.736 -687.108 -1007.2 -597.734V-597.734" stroke="white"/>
<path d="M1065.49 709.356L1064.05 655.748C1053.65 267.62 630.733 32.9084 295.871 229.426L247.747 257.668C-67.0012 442.382 -464.211 220.032 -471.31 -144.844L-473.792 -272.447C-478.928 -536.45 -741.747 -717.424 -990.214 -628.049V-628.049" stroke="white"/>
<path d="M1082.48 679.04L1081.04 625.432C1070.65 237.304 647.725 2.59251 312.863 199.11L264.739 227.352C-50.009 412.066 -447.218 189.716 -454.317 -175.16L-456.8 -302.763C-461.936 -566.766 -724.755 -747.74 -973.222 -658.365V-658.365" stroke="white"/>
<path d="M1099.47 648.726L1098.03 595.118C1087.64 206.99 664.717 -27.7213 329.855 168.796L281.731 197.038C-33.0168 381.752 -430.226 159.403 -437.325 -205.474L-439.808 -333.077C-444.944 -597.08 -707.763 -778.054 -956.23 -688.679V-688.679" stroke="white"/>
<path d="M1116.46 618.411L1115.02 564.803C1104.63 176.675 681.705 -58.0368 346.843 138.481L298.719 166.723C-16.0286 351.436 -413.238 129.087 -420.337 -235.789L-422.819 -363.393C-427.956 -627.395 -690.775 -808.369 -939.242 -718.995V-718.995" stroke="white"/>
<path d="M1133.45 588.095L1132.01 534.487C1121.62 146.359 698.697 -88.3527 363.836 108.165L315.712 136.407C0.96362 321.12 -396.246 98.7712 -403.345 -266.105L-405.827 -393.708C-410.964 -657.711 -673.783 -838.685 -922.25 -749.311V-749.311" stroke="white"/>
<path d="M1150.44 557.779L1149.01 504.171C1138.61 116.043 715.69 -118.669 380.828 77.8487L332.704 106.091C17.9558 290.804 -379.254 68.4551 -386.353 -296.421L-388.835 -424.025C-393.971 -688.027 -656.79 -869.001 -905.257 -779.627V-779.627" stroke="white"/>
</g>
</svg>
