<svg width="240" height="285" viewBox="0 0 240 285" fill="none" xmlns="http://www.w3.org/2000/svg">
<mask id="mask0_270_2062" style="mask-type:alpha" maskUnits="userSpaceOnUse" x="0" y="0" width="240" height="285">
<rect width="240" height="285" rx="25" fill="#E1F7F9"/>
</mask>
<g mask="url(#mask0_270_2062)">
<path d="M-847.759 1473.22L-794.823 1481.8C-411.557 1543.92 -102.141 1172.15 -232.81 806.526L-251.589 753.982C-374.41 410.325 -81.9312 61.5111 277.876 122.536L403.706 143.877C664.041 188.03 890.824 -36.4577 849.32 -297.228V-297.228" stroke="white"/>
<path d="M-820.498 1496.1L-767.561 1504.68C-384.295 1566.8 -74.8791 1195.03 -205.548 829.412L-224.327 776.867C-347.148 433.21 -54.6695 84.3963 305.138 145.421L430.968 166.762C691.303 210.916 918.086 -13.5725 876.582 -274.343V-274.343" stroke="white"/>
<path d="M-793.232 1518.99L-740.295 1527.57C-357.029 1589.68 -47.6135 1217.91 -178.283 852.295L-197.062 799.75C-319.882 456.093 -27.4038 107.28 332.404 168.304L458.234 189.645C718.569 233.799 945.352 9.31071 903.848 -251.459V-251.459" stroke="white"/>
<path d="M-765.972 1541.87L-713.036 1550.45C-329.77 1612.57 -20.3537 1240.8 -151.023 875.18L-169.802 822.636C-292.623 478.978 -0.144072 130.165 359.663 191.189L485.494 212.53C745.828 256.684 972.611 32.196 931.107 -228.574V-228.574" stroke="white"/>
<path d="M-738.707 1564.75L-685.77 1573.33C-302.504 1635.45 6.91191 1263.68 -123.757 898.063L-142.536 845.519C-265.357 501.862 27.1216 153.048 386.929 214.073L512.759 235.414C773.094 279.567 999.877 55.0793 958.373 -205.691V-205.691" stroke="white"/>
<path d="M-711.443 1587.64L-658.506 1596.22C-275.24 1658.34 34.1756 1286.57 -96.4938 920.951L-115.273 868.407C-238.093 524.749 54.3852 175.936 414.193 236.96L540.023 258.302C800.358 302.455 1027.14 77.9671 985.637 -182.803V-182.803" stroke="white"/>
<path d="M-684.181 1610.52L-631.245 1619.1C-247.979 1681.22 61.4373 1309.45 -69.2321 943.833L-88.011 891.288C-210.832 547.631 81.6469 198.817 441.454 259.842L567.285 281.183C827.619 325.337 1054.4 100.849 1012.9 -159.922V-159.922" stroke="white"/>
<path d="M-656.917 1633.41L-603.981 1641.99C-220.715 1704.11 88.701 1332.34 -41.9684 966.716L-60.7473 914.172C-183.568 570.515 108.911 221.701 468.718 282.726L594.548 304.067C854.883 348.221 1081.67 123.732 1040.16 -137.038V-137.038" stroke="white"/>
<path d="M-629.656 1656.29L-576.719 1664.87C-193.453 1726.99 115.963 1355.22 -14.7067 989.603L-33.4856 937.059C-156.306 593.401 136.172 244.588 495.98 305.612L621.81 326.953C882.145 371.107 1108.93 146.619 1067.42 -114.151V-114.151" stroke="white"/>
<path d="M-602.392 1679.18L-549.456 1687.76C-166.189 1749.87 143.226 1378.1 12.557 1012.49L-6.22194 959.941C-129.043 616.284 163.436 267.47 523.243 328.495L649.074 349.836C909.408 393.989 1136.19 169.501 1094.69 -91.2689V-91.2689" stroke="white"/>
<path d="M-575.128 1702.06L-522.192 1710.64C-138.926 1772.76 170.49 1400.99 39.8207 1035.37L21.0417 982.827C-101.779 639.17 190.7 290.357 550.507 351.381L676.337 372.722C936.672 416.876 1163.46 192.388 1121.95 -68.3824V-68.3824" stroke="white"/>
<path d="M-547.867 1724.95L-494.93 1733.53C-111.664 1795.64 197.752 1423.87 67.0824 1058.25L48.3034 1005.71C-74.5171 662.052 217.961 313.239 577.769 374.263L703.599 395.605C963.934 439.758 1190.72 215.27 1149.21 -45.5001V-45.5001" stroke="white"/>
<path d="M-520.603 1747.83L-467.667 1756.41C-84.4004 1818.53 225.015 1446.76 94.346 1081.14L75.5671 1028.59C-47.2534 684.937 245.225 336.123 605.032 397.148L730.863 418.489C991.197 462.642 1217.98 238.154 1176.48 -22.6158V-22.6158" stroke="white"/>
<path d="M-493.339 1770.72L-440.402 1779.29C-57.1363 1841.41 252.28 1469.64 121.61 1104.02L102.831 1051.48C-19.9893 707.822 272.489 359.008 632.297 420.033L758.127 441.374C1018.46 485.528 1245.24 261.04 1203.74 0.269412V0.269412" stroke="white"/>
<path d="M-466.075 1793.6L-413.139 1802.18C-29.8726 1864.3 279.543 1492.53 148.874 1126.91L130.095 1074.36C7.27438 730.706 299.753 381.892 659.56 442.917L785.391 464.258C1045.73 508.411 1272.51 283.923 1231 23.1532V23.1532" stroke="white"/>
<path d="M-439.456 1815.94L-386.52 1824.52C-3.25346 1886.64 306.162 1514.87 175.493 1149.25L156.714 1096.7C33.8935 753.047 326.372 404.234 686.179 465.258L812.01 486.6C1072.34 530.753 1299.13 306.265 1257.62 45.495V45.495" stroke="white"/>
<path d="M-412.837 1838.29L-359.9 1846.86C23.3657 1908.98 332.782 1537.21 202.112 1171.59L183.333 1119.05C60.5127 775.392 352.991 426.578 712.799 487.603L838.629 508.944C1098.96 553.098 1325.75 328.609 1284.24 67.8392V67.8392" stroke="white"/>
<path d="M-386.224 1860.63L-333.287 1869.21C49.979 1931.33 359.395 1559.56 228.725 1193.94L209.947 1141.39C87.1259 797.735 379.604 448.922 739.412 509.946L865.242 531.288C1125.58 575.441 1352.36 350.953 1310.86 90.183V90.183" stroke="white"/>
<path d="M-359.604 1882.97L-306.668 1891.55C76.5981 1953.67 386.014 1581.9 255.345 1216.28L236.566 1163.73C113.745 820.077 406.224 471.263 766.031 532.288L891.861 553.629C1152.2 597.783 1378.98 373.294 1337.47 112.524V112.524" stroke="white"/>
<path d="M-332.985 1905.31L-280.049 1913.89C103.217 1976.01 412.633 1604.24 281.964 1238.62L263.185 1186.08C140.364 842.419 432.843 493.606 792.65 554.63L918.48 575.971C1178.82 620.125 1405.6 395.637 1364.09 134.867V134.867" stroke="white"/>
<path d="M-306.367 1927.66L-253.43 1936.24C129.836 1998.35 439.252 1626.58 308.582 1260.96L289.803 1208.42C166.983 864.763 459.461 515.95 819.269 576.974L945.099 598.316C1205.43 642.469 1432.22 417.981 1390.71 157.211V157.211" stroke="white"/>
<path d="M-279.753 1950L-226.817 1958.58C156.449 2020.69 465.865 1648.92 335.196 1283.31L316.417 1230.76C193.596 887.104 486.075 538.29 845.882 599.315L971.712 620.656C1232.05 664.809 1458.83 440.321 1417.33 179.551V179.551" stroke="white"/>
<path d="M-253.132 1972.34L-200.196 1980.92C183.07 2043.04 492.486 1671.27 361.817 1305.65L343.038 1253.1C220.217 909.446 512.696 560.633 872.503 621.657L998.333 642.999C1258.67 687.152 1485.45 462.664 1443.95 201.894V201.894" stroke="white"/>
<path d="M-226.515 1994.68L-173.579 2003.26C209.687 2065.38 519.103 1693.61 388.434 1327.99L369.655 1275.45C246.834 931.79 539.313 582.976 899.12 644.001L1024.95 665.342C1285.29 709.495 1512.07 485.007 1470.56 224.237V224.237" stroke="white"/>
<path d="M-199.896 2017.03L-146.96 2025.61C236.307 2087.72 545.722 1715.95 415.053 1350.34L396.274 1297.79C273.454 954.133 565.932 605.32 925.739 666.344L1051.57 687.686C1311.9 731.839 1538.69 507.351 1497.18 246.581V246.581" stroke="white"/>
<path d="M-173.279 2039.37L-120.342 2047.95C262.924 2110.07 572.34 1738.3 441.67 1372.68L422.891 1320.13C300.071 976.475 592.549 627.661 952.357 688.686L1078.19 710.027C1338.52 754.181 1565.3 529.692 1523.8 268.922V268.922" stroke="white"/>
<path d="M-146.662 2061.71L-93.7252 2070.29C289.541 2132.41 598.957 1760.64 468.287 1395.02L449.509 1342.47C326.688 998.817 619.166 650.004 978.974 711.028L1104.8 732.37C1365.14 776.523 1591.92 552.035 1550.42 291.265V291.265" stroke="white"/>
<path d="M-120.044 2084.05L-67.108 2092.63C316.158 2154.75 625.574 1782.98 494.905 1417.36L476.126 1364.82C353.305 1021.16 645.784 672.348 1005.59 733.372L1131.42 754.713C1391.76 798.867 1618.54 574.379 1577.04 313.609V313.609" stroke="white"/>
<path d="M-93.4253 2106.4L-40.4888 2114.98C342.777 2177.1 652.193 1805.32 521.524 1439.71L502.745 1387.16C379.924 1043.5 672.403 694.691 1032.21 755.715L1158.04 777.057C1418.38 821.21 1645.16 596.722 1603.65 335.952V335.952" stroke="white"/>
</g>
</svg>
