<svg width="70" height="70" viewBox="0 0 70 70" fill="none" xmlns="http://www.w3.org/2000/svg">
<rect width="70" height="70" rx="12" fill="#F9E9E4"/>
<path d="M49.9 39.2C49.2 38.4 48.2001 38 47.2001 38C46.2001 38 45.2 38.4 44.5 39.2L43.6 40.2L42.7001 39.2C42.0001 38.4 41 38 40 38C39 38 38 38.4 37.3 39.2C35.8 40.7 35.8 43.2 37.3 44.8L43 50.7C43.2 50.9 43.5001 51 43.7001 51C43.9001 51 44.2 50.9 44.4 50.7L50.1 44.8C51.3 43.2 51.3 40.7 49.9 39.2Z" fill="#E31E24"/>
<path d="M34.1 41H27.4L28.6 38.7C29.1 37.7 30.1 37 31.3 37H34.8C35.3 37 35.8 37.1 36.2 37.3C37.2 36.4 38.5 36 39.9 36H40C40 36 40 36 40.1 36H43.1C43.6 36 44.1 36.4 44.1 37C45 36.4 46 36.1 47.1 36C47.1 34.4 46.3 32.9 45.1 32H46.1C46.7 32 47.1 31.6 47.1 31C47.1 30.4 46.7 30 46.1 30H43.3L42 27C41.2 25.2 39.4 24 37.4 24H28.6C26.6 24 24.8 25.2 24 27L22.7 30H20C19.4 30 19 30.4 19 31C19 31.6 19.4 32 20 32H21C19.8 32.9 19 34.4 19 36V40C19 40.9 19.4 41.7 20 42.2V44C20 45.7 21.3 47 23 47H25C26.7 47 28 45.7 28 44V43H34.1C34 42.3 34 41.7 34.1 41ZM26 38H23C22.4 38 22 37.6 22 37C22 36.4 22.4 36 23 36H26C26.6 36 27 36.4 27 37C27 37.6 26.6 38 26 38ZM24.5 31L25.9 27.8C26.4 26.7 27.4 26 28.6 26H37.3C38.5 26 39.6 26.7 40.1 27.8L41.5 31H24.5Z" fill="#E31E24"/>
</svg>
