<svg width="70" height="70" viewBox="0 0 70 70" fill="none" xmlns="http://www.w3.org/2000/svg">
<rect width="70" height="70" rx="12" fill="#F9E9E4"/>
<path d="M47.1494 36.5025V26.059C47.1494 25.7185 47.0824 25.3813 46.9521 25.0667C46.8218 24.7521 46.6308 24.4663 46.39 24.2255C46.1492 23.9847 45.8634 23.7937 45.5488 23.6634C45.2342 23.5331 44.897 23.4661 44.5565 23.4661H22.5148C21.8271 23.4661 21.1676 23.7392 20.6813 24.2255C20.1951 24.7118 19.9219 25.3713 19.9219 26.059V40.2286C19.9219 40.5691 19.9889 40.9063 20.1192 41.2209C20.2495 41.5355 20.4405 41.8213 20.6812 42.0621C20.922 42.3029 21.2079 42.4939 21.5225 42.6242C21.837 42.7545 22.1742 42.8216 22.5147 42.8216H25.8555V46.7562C25.8555 46.9357 25.9088 47.1113 26.0085 47.2606C26.1083 47.4098 26.2501 47.5262 26.416 47.5949C26.5818 47.6636 26.7644 47.6816 26.9405 47.6465C27.1166 47.6115 27.2783 47.525 27.4053 47.3981L31.9817 42.8216H36.1796V40.2104C36.1806 39.2273 36.5717 38.2848 37.2669 37.5896C37.9621 36.8945 38.9047 36.5035 39.8878 36.5025H47.1494ZM39.4288 34.5823C39.4288 34.7524 39.3612 34.9156 39.2409 35.0359C39.1206 35.1562 38.9574 35.2238 38.7873 35.2238H35.6155V38.3954C35.6155 38.5656 35.5479 38.7287 35.4277 38.849C35.3074 38.9693 35.1442 39.0369 34.9741 39.0369H32.0971C32.0129 39.0369 31.9295 39.0203 31.8516 38.9881C31.7738 38.9559 31.7031 38.9086 31.6435 38.8491C31.5839 38.7895 31.5367 38.7188 31.5045 38.6409C31.4722 38.5631 31.4556 38.4797 31.4556 38.3954V35.2238H28.2838C28.1137 35.2238 27.9506 35.1562 27.8303 35.0359C27.71 34.9156 27.6425 34.7524 27.6424 34.5823V31.7053C27.6425 31.5352 27.71 31.372 27.8303 31.2517C27.9506 31.1314 28.1137 31.0638 28.2838 31.0638H31.4556V27.8922C31.4556 27.8079 31.4722 27.7245 31.5045 27.6467C31.5367 27.5688 31.5839 27.4981 31.6435 27.4386C31.7031 27.379 31.7738 27.3317 31.8516 27.2995C31.9295 27.2673 32.0129 27.2507 32.0971 27.2507H34.9741C35.0583 27.2507 35.1417 27.2673 35.2196 27.2995C35.2974 27.3318 35.3681 27.379 35.4277 27.4386C35.4872 27.4981 35.5345 27.5689 35.5667 27.6467C35.5989 27.7245 35.6155 27.8079 35.6155 27.8922V31.0638H38.7873C38.9574 31.0638 39.1206 31.1314 39.2409 31.2517C39.3612 31.372 39.4288 31.5352 39.4288 31.7053V34.5823Z" fill="#E31E24"/>
<path d="M53.479 38.6118H39.8877C39.4636 38.6118 39.057 38.7803 38.7571 39.0801C38.4573 39.38 38.2888 39.7866 38.2888 40.2107V48.9479C38.2888 49.3719 38.4573 49.7786 38.7572 50.0785C39.057 50.3783 39.4637 50.5468 39.8878 50.5467H47.6415L50.4636 53.3689C50.5418 53.4471 50.6416 53.5004 50.7502 53.522C50.8588 53.5436 50.9713 53.5325 51.0736 53.4902C51.1759 53.4478 51.2633 53.376 51.3248 53.284C51.3863 53.1919 51.4191 53.0837 51.4191 52.973V50.5467H53.4793C53.9033 50.5467 54.3099 50.3783 54.6097 50.0785C54.9096 49.7787 55.078 49.3721 55.0781 48.9481V40.2107C55.0781 40.0007 55.0367 39.7928 54.9563 39.5988C54.876 39.4048 54.7582 39.2285 54.6097 39.0801C54.4612 38.9316 54.2849 38.8138 54.0909 38.7335C53.8969 38.6532 53.689 38.6118 53.479 38.6118ZM51.1601 47.7288H42.1775C41.8978 47.7288 41.6296 47.6176 41.4318 47.4198C41.234 47.2221 41.1229 46.9538 41.1229 46.6741C41.1229 46.3943 41.234 46.1261 41.4318 45.9283C41.6296 45.7305 41.8978 45.6194 42.1775 45.6194H51.1601C51.4398 45.6194 51.7081 45.7305 51.9059 45.9283C52.1036 46.1261 52.2148 46.3943 52.2148 46.6741C52.2148 46.9538 52.1036 47.2221 51.9059 47.4198C51.7081 47.6176 51.4398 47.7288 51.1601 47.7288ZM51.1601 43.51H42.1775C41.8978 43.51 41.6296 43.3989 41.4318 43.2011C41.234 43.0033 41.1229 42.735 41.1229 42.4553C41.1229 42.1756 41.234 41.9073 41.4318 41.7095C41.6296 41.5117 41.8978 41.4006 42.1775 41.4006H51.1601C51.4398 41.4006 51.7081 41.5117 51.9059 41.7095C52.1036 41.9073 52.2148 42.1756 52.2148 42.4553C52.2148 42.735 52.1036 43.0033 51.9059 43.2011C51.7081 43.3989 51.4398 43.51 51.1601 43.51Z" fill="#E31E24"/>
</svg>
