<svg width="70" height="70" viewBox="0 0 70 70" fill="none" xmlns="http://www.w3.org/2000/svg">
<rect width="70" height="70" rx="12" fill="#F9E9E4"/>
<path d="M49.0288 28.6156C48.9136 27.3422 48.5106 26.1116 47.8502 25.0168C47.1897 23.922 46.2891 22.9916 45.2163 22.296C44.1436 21.6003 42.9267 21.1575 41.6577 21.0011C40.3888 20.8447 39.1008 20.9787 37.8913 21.3931C36.019 22.0455 33.981 22.0455 32.1088 21.3931C30.3723 20.8008 28.4902 20.7906 26.7475 21.364C25.0047 21.9375 23.4964 23.0634 22.451 24.571C21.4056 26.0787 20.8801 27.8861 20.9541 29.7192C21.0282 31.5524 21.6977 33.3115 22.8613 34.7299C24.0663 36.2383 24.8832 38.019 25.2406 39.9162C25.7019 42.1662 26.27 44.9168 26.6638 46.8237C26.7942 47.4478 27.1328 48.0092 27.6241 48.4156C28.1154 48.822 28.7302 49.0494 29.3678 49.0606C30.0053 49.0717 30.6277 48.8658 31.1329 48.4768C31.6381 48.0877 31.996 47.5385 32.1481 46.9193L33.3631 41.9581C33.4546 41.5932 33.6653 41.2693 33.9619 41.0379C34.2584 40.8065 34.6238 40.6808 35 40.6808C35.3762 40.6808 35.7416 40.8065 36.0381 41.0379C36.3347 41.2693 36.5454 41.5932 36.6369 41.9581L37.8519 46.9193C37.9573 47.3596 38.1674 47.7679 38.4645 48.1096C38.7615 48.4513 39.1366 48.7162 39.5579 48.8819C39.9793 49.0475 40.4343 49.109 40.8845 49.0611C41.3347 49.0132 41.7667 48.8574 42.1438 48.6068C41.1354 47.8737 40.3178 46.909 39.7598 45.7941C39.2019 44.6792 38.9199 43.4466 38.9375 42.1999V37.2499C38.9311 37.1273 38.965 37.0059 39.0341 36.9043C39.1032 36.8028 39.2036 36.7266 39.32 36.6874L44.3825 34.9999C44.4993 34.9605 44.6257 34.9605 44.7425 34.9999L46.4919 35.5624C46.691 35.2563 46.907 34.9615 47.1388 34.6793C48.5377 32.9831 49.2162 30.8062 49.0288 28.6156ZM41.48 24.2281C39.5012 25.349 37.2738 25.958 35 25.9999C32.7262 25.958 30.4988 25.349 28.52 24.2281C28.4436 24.1989 28.3745 24.1534 28.3175 24.0948C28.2605 24.0361 28.217 23.9658 28.19 23.8886C28.163 23.8115 28.1531 23.7293 28.161 23.648C28.169 23.5666 28.1946 23.4879 28.236 23.4174C28.2775 23.347 28.3338 23.2864 28.401 23.2399C28.4683 23.1934 28.5449 23.1622 28.6255 23.1483C28.7061 23.1344 28.7887 23.1383 28.8676 23.1596C28.9465 23.181 29.0199 23.2192 29.0825 23.2718C30.8964 24.2767 32.9269 24.8268 35 24.8749C37.0658 24.8257 39.0888 24.2755 40.895 23.2718C40.9576 23.2192 41.031 23.181 41.1099 23.1596C41.1888 23.1383 41.2714 23.1344 41.352 23.1483C41.4326 23.1622 41.5092 23.1934 41.5765 23.2399C41.6437 23.2864 41.7 23.347 41.7415 23.4174C41.7829 23.4879 41.8085 23.5666 41.8165 23.648C41.8244 23.7293 41.8146 23.8115 41.7875 23.8886C41.7605 23.9658 41.717 24.0361 41.66 24.0948C41.603 24.1534 41.5339 24.1989 41.4575 24.2281H41.48Z" fill="#E31E24"/>
<path d="M44.5624 36.1531L40.0624 37.655V42.2C40.0422 43.2839 40.288 44.3563 40.7783 45.3232C41.2686 46.2901 41.9885 47.122 42.8749 47.7462C43.3864 48.0989 43.9584 48.3544 44.5624 48.5C47.1781 47.8531 49.0624 45.2318 49.0624 42.2168V37.655L44.5624 36.1531ZM47.2118 41.0243L44.3993 43.8368C44.347 43.8895 44.2848 43.9314 44.2163 43.96C44.1477 43.9885 44.0742 44.0032 43.9999 44.0032C43.9257 44.0032 43.8522 43.9885 43.7836 43.96C43.7151 43.9314 43.6529 43.8895 43.6006 43.8368L42.4756 42.7118C42.3696 42.6059 42.3101 42.4622 42.3101 42.3125C42.3101 42.1627 42.3696 42.019 42.4756 41.9131C42.5815 41.8072 42.7251 41.7476 42.8749 41.7476C43.0247 41.7476 43.1684 41.8072 43.2743 41.9131L43.9999 42.6443L46.4131 40.2256C46.519 40.1197 46.6626 40.0601 46.8124 40.0601C46.9622 40.0601 47.1059 40.1197 47.2118 40.2256C47.3177 40.3315 47.3772 40.4752 47.3772 40.625C47.3772 40.7747 47.3177 40.9184 47.2118 41.0243Z" fill="#E31E24"/>
</svg>
