<svg width="64" height="64" viewBox="0 0 64 64" fill="none" xmlns="http://www.w3.org/2000/svg">
<rect width="64" height="64" rx="32" fill="#F0F2F2"/>
<path d="M31.8153 41.2386C30.5881 41.2386 29.4972 41.0284 28.5426 40.608C27.5938 40.1875 26.8438 39.6023 26.2926 38.8523C25.7415 38.1023 25.4489 37.2358 25.4148 36.2528H28.6193C28.6477 36.7244 28.804 37.1364 29.0881 37.4886C29.3722 37.8352 29.75 38.1051 30.2216 38.2983C30.6932 38.4915 31.2216 38.5881 31.8068 38.5881C32.4318 38.5881 32.9858 38.4801 33.4688 38.2642C33.9517 38.0426 34.3295 37.7358 34.6023 37.3438C34.875 36.9517 35.0085 36.5 35.0028 35.9886C35.0085 35.4602 34.8722 34.9943 34.5938 34.5909C34.3153 34.1875 33.9119 33.8722 33.3835 33.6449C32.8608 33.4176 32.2301 33.304 31.4915 33.304H29.9489V30.8665H31.4915C32.0994 30.8665 32.6307 30.7614 33.0852 30.5511C33.5455 30.3409 33.9063 30.0455 34.1676 29.6648C34.429 29.2784 34.5568 28.8324 34.5511 28.3267C34.5568 27.8324 34.446 27.4034 34.2188 27.0398C33.9972 26.6705 33.6818 26.3835 33.2727 26.179C32.8693 25.9744 32.3949 25.8722 31.8494 25.8722C31.3153 25.8722 30.821 25.9687 30.3665 26.1619C29.9119 26.3551 29.5455 26.6307 29.267 26.9886C28.9886 27.3409 28.8409 27.7614 28.8239 28.25H25.7812C25.804 27.2727 26.0852 26.4148 26.625 25.6761C27.1705 24.9318 27.8977 24.3523 28.8068 23.9375C29.7159 23.517 30.7358 23.3068 31.8665 23.3068C33.0313 23.3068 34.0426 23.5256 34.9006 23.9631C35.7642 24.3949 36.4318 24.9773 36.9034 25.7102C37.375 26.4432 37.6108 27.2528 37.6108 28.1392C37.6165 29.1222 37.3267 29.946 36.7415 30.6108C36.1619 31.2756 35.4006 31.7102 34.4574 31.9148V32.0511C35.6847 32.2216 36.625 32.6761 37.2784 33.4148C37.9375 34.1477 38.2642 35.0597 38.2585 36.1506C38.2585 37.1278 37.9801 38.0028 37.4233 38.7756C36.8722 39.5426 36.1108 40.1449 35.1392 40.5824C34.1733 41.0199 33.0653 41.2386 31.8153 41.2386Z" fill="#999EA5"/>
</svg>
