<svg width="70" height="70" viewBox="0 0 70 70" fill="none" xmlns="http://www.w3.org/2000/svg">
<rect width="70" height="70" rx="12" fill="#F9E9E4"/>
<path d="M25.9062 33.4375H23.5312V35.8125H25.9062V33.4375Z" fill="#E31E24"/>
<path d="M25.9062 33.4375H23.5312V35.8125H25.9062V33.4375Z" fill="#E31E24"/>
<path d="M25.9062 39.9688H23.5312V42.3438H25.9062V39.9688Z" fill="#E31E24"/>
<path d="M25.9062 39.9688H23.5312V42.3438H25.9062V39.9688Z" fill="#E31E24"/>
<path d="M31.8438 33.4375H29.4688V35.8125H31.8438V33.4375Z" fill="#E31E24"/>
<path d="M31.8438 33.4375H29.4688V35.8125H31.8438V33.4375Z" fill="#E31E24"/>
<path d="M37.7812 33.4375H35.4062V35.8125H37.7812V33.4375Z" fill="#E31E24"/>
<path d="M37.7812 33.4375H35.4062V35.8125H37.7812V33.4375Z" fill="#E31E24"/>
<path d="M31.8438 39.9688H29.4688V42.3438H31.8438V39.9688Z" fill="#E31E24"/>
<path d="M31.8438 39.9688H29.4688V42.3438H31.8438V39.9688Z" fill="#E31E24"/>
<path d="M42.5312 26.3125V29.875H19.9688V26.3125C19.9688 25.8401 20.1564 25.387 20.4905 25.053C20.8245 24.7189 21.2776 24.5312 21.75 24.5312H23.5312V25.7188C23.5312 26.3486 23.7815 26.9527 24.2269 27.3981C24.6723 27.8435 25.2764 28.0938 25.9062 28.0938C26.5361 28.0938 27.1402 27.8435 27.5856 27.3981C28.031 26.9527 28.2812 26.3486 28.2812 25.7188V24.5312H33.0312V25.7188C33.0312 26.3486 33.2815 26.9527 33.7269 27.3981C34.1723 27.8435 34.7764 28.0938 35.4062 28.0938C36.0361 28.0938 36.6402 27.8435 37.0856 27.3981C37.531 26.9527 37.7812 26.3486 37.7812 25.7188V24.5312H40.75C41.2224 24.5312 41.6755 24.7189 42.0095 25.053C42.3436 25.387 42.5312 25.8401 42.5312 26.3125Z" fill="#E31E24"/>
<path d="M25.9062 33.4375H23.5312V35.8125H25.9062V33.4375Z" fill="#E31E24"/>
<path d="M29.4688 33.4375V35.8125H31.8438V33.4375H29.4688ZM29.4688 33.4375V35.8125H31.8438V33.4375H29.4688ZM23.5312 39.9688V42.3438H25.9062V39.9688H23.5312ZM29.4688 33.4375V35.8125H31.8438V33.4375H29.4688ZM29.4688 39.9688V42.3438H31.8438V39.9688H29.4688ZM29.4688 33.4375V35.8125H31.8438V33.4375H29.4688ZM29.4688 39.9688V42.3438H31.8438V39.9688H29.4688ZM23.5312 39.9688V42.3438H25.9062V39.9688H23.5312ZM23.5312 39.9688V42.3438H25.9062V39.9688H23.5312ZM29.4688 33.4375V35.8125H31.8438V33.4375H29.4688ZM29.4688 39.9688V42.3438H31.8438V39.9688H29.4688ZM35.4062 33.4375V35.8125H37.7812V33.4375H35.4062ZM35.4062 33.4375V35.8125H37.7812V33.4375H35.4062ZM29.4688 33.4375V35.8125H31.8438V33.4375H29.4688ZM29.4688 39.9688V42.3438H31.8438V39.9688H29.4688ZM23.5312 39.9688V42.3438H25.9062V39.9688H23.5312ZM19.9688 31.0625V44.125C19.9688 44.5974 20.1564 45.0505 20.4905 45.3845C20.8245 45.7186 21.2776 45.9062 21.75 45.9062H34.6462C34.6462 45.9062 34.5216 45.7103 34.4622 45.6153C34.3725 45.4595 34.2912 45.2989 34.2188 45.1344C34.1713 45.0334 34.1297 44.9325 34.0881 44.8316C33.9856 44.5719 33.9061 44.3036 33.8506 44.03C33.8331 43.9739 33.8212 43.9162 33.815 43.8578C33.7861 43.7147 33.7663 43.57 33.7556 43.4244C33.7523 43.4087 33.7523 43.3925 33.7556 43.3769C33.7468 43.2484 33.7468 43.1194 33.7556 42.9909C33.7527 42.9395 33.7527 42.888 33.7556 42.8366C33.7497 42.7238 33.7497 42.6109 33.7556 42.4981C33.7851 42.022 33.8811 41.5524 34.0406 41.1028C34.0406 41.0138 34.1059 40.9247 34.1416 40.8356C34.2554 40.5466 34.3987 40.2701 34.5691 40.0103C34.6289 39.9097 34.6943 39.8126 34.765 39.7194C34.8422 39.6125 34.9253 39.5056 35.0144 39.4047C35.1034 39.3037 35.1984 39.1969 35.2934 39.1019C36.298 38.1023 37.6585 37.5428 39.0756 37.5462C39.2181 37.5462 39.3606 37.5462 39.5031 37.5462L39.8653 37.5878C40.491 37.6724 41.0952 37.8738 41.6466 38.1816C41.7096 38.2083 41.7693 38.2422 41.8247 38.2825C41.8953 38.3184 41.9629 38.3601 42.0266 38.4072L42.1987 38.52C42.3234 38.6091 42.4422 38.7041 42.5609 38.805V31.0625H19.9688ZM27.0938 42.9375C27.0938 43.095 27.0312 43.246 26.9198 43.3573C26.8085 43.4687 26.6575 43.5312 26.5 43.5312H22.9375C22.78 43.5312 22.629 43.4687 22.5177 43.3573C22.4063 43.246 22.3438 43.095 22.3438 42.9375V39.375C22.3438 39.2175 22.4063 39.0665 22.5177 38.9552C22.629 38.8438 22.78 38.7812 22.9375 38.7812H26.5C26.6575 38.7812 26.8085 38.8438 26.9198 38.9552C27.0312 39.0665 27.0938 39.2175 27.0938 39.375V42.9375ZM27.0938 36.4062C27.0938 36.5637 27.0312 36.7147 26.9198 36.8261C26.8085 36.9374 26.6575 37 26.5 37H22.9375C22.78 37 22.629 36.9374 22.5177 36.8261C22.4063 36.7147 22.3438 36.5637 22.3438 36.4062V32.8438C22.3438 32.6863 22.4063 32.5353 22.5177 32.4239C22.629 32.3126 22.78 32.25 22.9375 32.25H26.5C26.6575 32.25 26.8085 32.3126 26.9198 32.4239C27.0312 32.5353 27.0938 32.6863 27.0938 32.8438V36.4062ZM33.0312 42.9375C33.0312 43.095 32.9687 43.246 32.8573 43.3573C32.746 43.4687 32.595 43.5312 32.4375 43.5312H28.875C28.7175 43.5312 28.5665 43.4687 28.4552 43.3573C28.3438 43.246 28.2812 43.095 28.2812 42.9375V39.375C28.2812 39.2175 28.3438 39.0665 28.4552 38.9552C28.5665 38.8438 28.7175 38.7812 28.875 38.7812H32.4375C32.595 38.7812 32.746 38.8438 32.8573 38.9552C32.9687 39.0665 33.0312 39.2175 33.0312 39.375V42.9375ZM33.0312 36.4062C33.0312 36.5637 32.9687 36.7147 32.8573 36.8261C32.746 36.9374 32.595 37 32.4375 37H28.875C28.7175 37 28.5665 36.9374 28.4552 36.8261C28.3438 36.7147 28.2812 36.5637 28.2812 36.4062V32.8438C28.2812 32.6863 28.3438 32.5353 28.4552 32.4239C28.5665 32.3126 28.7175 32.25 28.875 32.25H32.4375C32.595 32.25 32.746 32.3126 32.8573 32.4239C32.9687 32.5353 33.0312 32.6863 33.0312 32.8438V36.4062ZM38.9688 36.4062C38.9688 36.5637 38.9062 36.7147 38.7948 36.8261C38.6835 36.9374 38.5325 37 38.375 37H34.8125C34.655 37 34.504 36.9374 34.3927 36.8261C34.2813 36.7147 34.2188 36.5637 34.2188 36.4062V32.8438C34.2188 32.6863 34.2813 32.5353 34.3927 32.4239C34.504 32.3126 34.655 32.25 34.8125 32.25H38.375C38.5325 32.25 38.6835 32.3126 38.7948 32.4239C38.9062 32.5353 38.9688 32.6863 38.9688 32.8438V36.4062ZM35.4062 35.8125H37.7812V33.4375H35.4062V35.8125ZM29.4688 42.3438H31.8438V39.9688H29.4688V42.3438ZM29.4688 35.8125H31.8438V33.4375H29.4688V35.8125ZM23.5312 42.3438H25.9062V39.9688H23.5312V42.3438ZM35.4062 33.4375V35.8125H37.7812V33.4375H35.4062ZM23.5312 39.9688V42.3438H25.9062V39.9688H23.5312ZM29.4688 39.9688V42.3438H31.8438V39.9688H29.4688ZM29.4688 33.4375V35.8125H31.8438V33.4375H29.4688ZM35.4062 33.4375V35.8125H37.7812V33.4375H35.4062ZM29.4688 39.9688V42.3438H31.8438V39.9688H29.4688ZM29.4688 33.4375V35.8125H31.8438V33.4375H29.4688ZM23.5312 39.9688V42.3438H25.9062V39.9688H23.5312ZM23.5312 39.9688V42.3438H25.9062V39.9688H23.5312ZM29.4688 33.4375V35.8125H31.8438V33.4375H29.4688ZM29.4688 33.4375V35.8125H31.8438V33.4375H29.4688ZM23.5312 39.9688V42.3438H25.9062V39.9688H23.5312Z" fill="#E31E24"/>
<path d="M42.5312 26.3125V29.875H19.9688V26.3125C19.9688 25.8401 20.1564 25.387 20.4905 25.053C20.8245 24.7189 21.2776 24.5312 21.75 24.5312H23.5312V25.7188C23.5312 26.3486 23.7815 26.9527 24.2269 27.3981C24.6723 27.8435 25.2764 28.0938 25.9062 28.0938C26.5361 28.0938 27.1402 27.8435 27.5856 27.3981C28.031 26.9527 28.2812 26.3486 28.2812 25.7188V24.5312H33.0312V25.7188C33.0312 26.3486 33.2815 26.9527 33.7269 27.3981C34.1723 27.8435 34.7764 28.0938 35.4062 28.0938C36.0361 28.0938 36.6402 27.8435 37.0856 27.3981C37.531 26.9527 37.7812 26.3486 37.7812 25.7188V24.5312H40.75C41.2224 24.5312 41.6755 24.7189 42.0095 25.053C42.3436 25.387 42.5312 25.8401 42.5312 26.3125Z" fill="#E31E24"/>
<path d="M25.9062 33.4375H23.5312V35.8125H25.9062V33.4375Z" fill="#E31E24"/>
<path d="M29.4688 33.4375V35.8125H31.8438V33.4375H29.4688ZM29.4688 33.4375V35.8125H31.8438V33.4375H29.4688ZM23.5312 39.9688V42.3438H25.9062V39.9688H23.5312ZM29.4688 33.4375V35.8125H31.8438V33.4375H29.4688ZM29.4688 39.9688V42.3438H31.8438V39.9688H29.4688ZM29.4688 33.4375V35.8125H31.8438V33.4375H29.4688ZM29.4688 39.9688V42.3438H31.8438V39.9688H29.4688ZM23.5312 39.9688V42.3438H25.9062V39.9688H23.5312ZM23.5312 39.9688V42.3438H25.9062V39.9688H23.5312ZM29.4688 33.4375V35.8125H31.8438V33.4375H29.4688ZM29.4688 39.9688V42.3438H31.8438V39.9688H29.4688ZM35.4062 33.4375V35.8125H37.7812V33.4375H35.4062ZM35.4062 33.4375V35.8125H37.7812V33.4375H35.4062ZM29.4688 33.4375V35.8125H31.8438V33.4375H29.4688ZM29.4688 39.9688V42.3438H31.8438V39.9688H29.4688ZM23.5312 39.9688V42.3438H25.9062V39.9688H23.5312ZM19.9688 31.0625V44.125C19.9688 44.5974 20.1564 45.0505 20.4905 45.3845C20.8245 45.7186 21.2776 45.9062 21.75 45.9062H34.6462C34.6462 45.9062 34.5216 45.7103 34.4622 45.6153C34.3725 45.4595 34.2912 45.2989 34.2188 45.1344C34.1713 45.0334 34.1297 44.9325 34.0881 44.8316C33.9856 44.5719 33.9061 44.3036 33.8506 44.03C33.8331 43.9739 33.8212 43.9162 33.815 43.8578C33.7861 43.7147 33.7663 43.57 33.7556 43.4244C33.7523 43.4087 33.7523 43.3925 33.7556 43.3769C33.7468 43.2484 33.7468 43.1194 33.7556 42.9909C33.7527 42.9395 33.7527 42.888 33.7556 42.8366C33.7497 42.7238 33.7497 42.6109 33.7556 42.4981C33.7851 42.022 33.8811 41.5524 34.0406 41.1028C34.0406 41.0138 34.1059 40.9247 34.1416 40.8356C34.2554 40.5466 34.3987 40.2701 34.5691 40.0103C34.6289 39.9097 34.6943 39.8126 34.765 39.7194C34.8422 39.6125 34.9253 39.5056 35.0144 39.4047C35.1034 39.3037 35.1984 39.1969 35.2934 39.1019C36.298 38.1023 37.6585 37.5428 39.0756 37.5462C39.2181 37.5462 39.3606 37.5462 39.5031 37.5462L39.8653 37.5878C40.491 37.6724 41.0952 37.8738 41.6466 38.1816C41.7096 38.2083 41.7693 38.2422 41.8247 38.2825C41.8953 38.3184 41.9629 38.3601 42.0266 38.4072L42.1987 38.52C42.3234 38.6091 42.4422 38.7041 42.5609 38.805V31.0625H19.9688ZM27.0938 42.9375C27.0938 43.095 27.0312 43.246 26.9198 43.3573C26.8085 43.4687 26.6575 43.5312 26.5 43.5312H22.9375C22.78 43.5312 22.629 43.4687 22.5177 43.3573C22.4063 43.246 22.3438 43.095 22.3438 42.9375V39.375C22.3438 39.2175 22.4063 39.0665 22.5177 38.9552C22.629 38.8438 22.78 38.7812 22.9375 38.7812H26.5C26.6575 38.7812 26.8085 38.8438 26.9198 38.9552C27.0312 39.0665 27.0938 39.2175 27.0938 39.375V42.9375ZM27.0938 36.4062C27.0938 36.5637 27.0312 36.7147 26.9198 36.8261C26.8085 36.9374 26.6575 37 26.5 37H22.9375C22.78 37 22.629 36.9374 22.5177 36.8261C22.4063 36.7147 22.3438 36.5637 22.3438 36.4062V32.8438C22.3438 32.6863 22.4063 32.5353 22.5177 32.4239C22.629 32.3126 22.78 32.25 22.9375 32.25H26.5C26.6575 32.25 26.8085 32.3126 26.9198 32.4239C27.0312 32.5353 27.0938 32.6863 27.0938 32.8438V36.4062ZM33.0312 42.9375C33.0312 43.095 32.9687 43.246 32.8573 43.3573C32.746 43.4687 32.595 43.5312 32.4375 43.5312H28.875C28.7175 43.5312 28.5665 43.4687 28.4552 43.3573C28.3438 43.246 28.2812 43.095 28.2812 42.9375V39.375C28.2812 39.2175 28.3438 39.0665 28.4552 38.9552C28.5665 38.8438 28.7175 38.7812 28.875 38.7812H32.4375C32.595 38.7812 32.746 38.8438 32.8573 38.9552C32.9687 39.0665 33.0312 39.2175 33.0312 39.375V42.9375ZM33.0312 36.4062C33.0312 36.5637 32.9687 36.7147 32.8573 36.8261C32.746 36.9374 32.595 37 32.4375 37H28.875C28.7175 37 28.5665 36.9374 28.4552 36.8261C28.3438 36.7147 28.2812 36.5637 28.2812 36.4062V32.8438C28.2812 32.6863 28.3438 32.5353 28.4552 32.4239C28.5665 32.3126 28.7175 32.25 28.875 32.25H32.4375C32.595 32.25 32.746 32.3126 32.8573 32.4239C32.9687 32.5353 33.0312 32.6863 33.0312 32.8438V36.4062ZM38.9688 36.4062C38.9688 36.5637 38.9062 36.7147 38.7948 36.8261C38.6835 36.9374 38.5325 37 38.375 37H34.8125C34.655 37 34.504 36.9374 34.3927 36.8261C34.2813 36.7147 34.2188 36.5637 34.2188 36.4062V32.8438C34.2188 32.6863 34.2813 32.5353 34.3927 32.4239C34.504 32.3126 34.655 32.25 34.8125 32.25H38.375C38.5325 32.25 38.6835 32.3126 38.7948 32.4239C38.9062 32.5353 38.9688 32.6863 38.9688 32.8438V36.4062ZM35.4062 35.8125H37.7812V33.4375H35.4062V35.8125ZM29.4688 42.3438H31.8438V39.9688H29.4688V42.3438ZM29.4688 35.8125H31.8438V33.4375H29.4688V35.8125ZM23.5312 42.3438H25.9062V39.9688H23.5312V42.3438ZM23.5312 39.9688V42.3438H25.9062V39.9688H23.5312ZM29.4688 39.9688V42.3438H31.8438V39.9688H29.4688ZM29.4688 33.4375V35.8125H31.8438V33.4375H29.4688ZM35.4062 33.4375V35.8125H37.7812V33.4375H35.4062ZM35.4062 33.4375V35.8125H37.7812V33.4375H35.4062ZM29.4688 39.9688V42.3438H31.8438V39.9688H29.4688ZM29.4688 33.4375V35.8125H31.8438V33.4375H29.4688ZM23.5312 39.9688V42.3438H25.9062V39.9688H23.5312ZM23.5312 39.9688V42.3438H25.9062V39.9688H23.5312ZM29.4688 33.4375V35.8125H31.8438V33.4375H29.4688ZM29.4688 33.4375V35.8125H31.8438V33.4375H29.4688ZM23.5312 39.9688V42.3438H25.9062V39.9688H23.5312Z" fill="#E31E24"/>
<path d="M27.0938 22.1562V25.7188C27.0938 26.0337 26.9686 26.3357 26.7459 26.5584C26.5232 26.7811 26.2212 26.9062 25.9062 26.9062C25.5913 26.9062 25.2893 26.7811 25.0666 26.5584C24.8439 26.3357 24.7188 26.0337 24.7188 25.7188V22.1562C24.7188 21.8413 24.8439 21.5393 25.0666 21.3166C25.2893 21.0939 25.5913 20.9688 25.9062 20.9688C26.2212 20.9688 26.5232 21.0939 26.7459 21.3166C26.9686 21.5393 27.0938 21.8413 27.0938 22.1562Z" fill="#E31E24"/>
<path d="M27.0938 22.1562V25.7188C27.0938 26.0337 26.9686 26.3357 26.7459 26.5584C26.5232 26.7811 26.2212 26.9062 25.9062 26.9062C25.5913 26.9062 25.2893 26.7811 25.0666 26.5584C24.8439 26.3357 24.7188 26.0337 24.7188 25.7188V22.1562C24.7188 21.8413 24.8439 21.5393 25.0666 21.3166C25.2893 21.0939 25.5913 20.9688 25.9062 20.9688C26.2212 20.9688 26.5232 21.0939 26.7459 21.3166C26.9686 21.5393 27.0938 21.8413 27.0938 22.1562Z" fill="#E31E24"/>
<path d="M36.5938 22.1562V25.7188C36.5938 26.0337 36.4686 26.3357 36.2459 26.5584C36.0232 26.7811 35.7212 26.9062 35.4062 26.9062C35.0913 26.9062 34.7893 26.7811 34.5666 26.5584C34.3439 26.3357 34.2188 26.0337 34.2188 25.7188V22.1562C34.2188 21.8413 34.3439 21.5393 34.5666 21.3166C34.7893 21.0939 35.0913 20.9688 35.4062 20.9688C35.7212 20.9688 36.0232 21.0939 36.2459 21.3166C36.4686 21.5393 36.5938 21.8413 36.5938 22.1562Z" fill="#E31E24"/>
<path d="M36.5938 22.1562V25.7188C36.5938 26.0337 36.4686 26.3357 36.2459 26.5584C36.0232 26.7811 35.7212 26.9062 35.4062 26.9062C35.0913 26.9062 34.7893 26.7811 34.5666 26.5584C34.3439 26.3357 34.2188 26.0337 34.2188 25.7188V22.1562C34.2188 21.8413 34.3439 21.5393 34.5666 21.3166C34.7893 21.0939 35.0913 20.9688 35.4062 20.9688C35.7212 20.9688 36.0232 21.0939 36.2459 21.3166C36.4686 21.5393 36.5938 21.8413 36.5938 22.1562Z" fill="#E31E24"/>
<path d="M51.3485 42.8899C51.347 43.9902 50.9093 45.045 50.1314 45.823L43.1251 52.8411L36.3742 46.0843L36.1189 45.823C35.7329 45.4371 35.4267 44.9789 35.2178 44.4746C35.0089 43.9703 34.9014 43.4298 34.9014 42.8839C34.9014 42.3381 35.0089 41.7976 35.2178 41.2933C35.4267 40.789 35.7329 40.3308 36.1189 39.9449C36.5048 39.5589 36.963 39.2527 37.4673 39.0438C37.9716 38.8349 38.5121 38.7274 39.0579 38.7274C39.6038 38.7274 40.1443 38.8349 40.6485 39.0438C41.1528 39.2527 41.611 39.5589 41.997 39.9449L42.7035 40.6514C42.7727 40.7199 42.8575 40.7703 42.9507 40.7983C43.0439 40.8262 43.1425 40.8309 43.2379 40.8118C43.3365 40.7949 43.4288 40.7518 43.5051 40.6871L43.5467 40.6514L44.2532 39.9686C44.8346 39.3751 45.5805 38.9694 46.3947 38.804C47.2089 38.6385 48.054 38.7209 48.821 39.0404C49.5879 39.36 50.2415 39.902 50.6973 40.5967C51.1531 41.2913 51.3903 42.1066 51.3782 42.9374L51.3485 42.8899Z" fill="#E31E24"/>
<path d="M51.3485 42.8899C51.347 43.9902 50.9093 45.045 50.1314 45.823L43.1251 52.8411L36.3742 46.0843L36.1189 45.823C35.7329 45.4371 35.4267 44.9789 35.2178 44.4746C35.0089 43.9703 34.9014 43.4298 34.9014 42.8839C34.9014 42.3381 35.0089 41.7976 35.2178 41.2933C35.4267 40.789 35.7329 40.3308 36.1189 39.9449C36.5048 39.5589 36.963 39.2527 37.4673 39.0438C37.9716 38.8349 38.5121 38.7274 39.0579 38.7274C39.6038 38.7274 40.1443 38.8349 40.6485 39.0438C41.1528 39.2527 41.611 39.5589 41.997 39.9449L42.7035 40.6514C42.7727 40.7199 42.8575 40.7703 42.9507 40.7983C43.0439 40.8262 43.1425 40.8309 43.2379 40.8118C43.3365 40.7949 43.4288 40.7518 43.5051 40.6871L43.5467 40.6514L44.2532 39.9686C44.8346 39.3751 45.5805 38.9694 46.3947 38.804C47.2089 38.6385 48.054 38.7209 48.821 39.0404C49.5879 39.36 50.2415 39.902 50.6973 40.5967C51.1531 41.2913 51.3903 42.1066 51.3782 42.9374L51.3485 42.8899Z" fill="#E31E24"/>
</svg>
