<svg width="64" height="64" viewBox="0 0 64 64" fill="none" xmlns="http://www.w3.org/2000/svg">
<rect width="64" height="64" rx="32" fill="#F0F2F2"/>
<path d="M26.0511 41V38.7159L32.1108 32.7756C32.6903 32.1903 33.1733 31.6705 33.5597 31.2159C33.946 30.7614 34.2358 30.321 34.429 29.8949C34.6222 29.4687 34.7188 29.0142 34.7188 28.5312C34.7188 27.9801 34.5938 27.5085 34.3438 27.1165C34.0938 26.7188 33.75 26.4119 33.3125 26.196C32.875 25.9801 32.3778 25.8722 31.821 25.8722C31.2472 25.8722 30.7443 25.9915 30.3125 26.2301C29.8807 26.4631 29.5455 26.7955 29.3068 27.2273C29.0739 27.6591 28.9574 28.1733 28.9574 28.7699H25.9489C25.9489 27.6619 26.2017 26.6989 26.7074 25.8807C27.2131 25.0625 27.9091 24.429 28.7955 23.9801C29.6875 23.5312 30.7102 23.3068 31.8636 23.3068C33.0341 23.3068 34.0625 23.5256 34.9489 23.9631C35.8352 24.4006 36.5227 25 37.0114 25.7614C37.5057 26.5227 37.7528 27.392 37.7528 28.3693C37.7528 29.0227 37.6278 29.6648 37.3778 30.2955C37.1278 30.9261 36.6875 31.625 36.0568 32.392C35.4318 33.1591 34.554 34.0881 33.4233 35.179L30.4148 38.2386V38.358H38.017V41H26.0511Z" fill="#999EA5"/>
</svg>
