<svg width="23" height="21" viewBox="0 0 23 21" fill="none" xmlns="http://www.w3.org/2000/svg">
<g clip-path="url(#clip0_270_1497)">
<mask id="mask0_270_1497" style="mask-type:alpha" maskUnits="userSpaceOnUse" x="1" y="1" width="21" height="20">
<path d="M12.0718 1.58692C11.7362 0.927008 10.7935 0.927008 10.458 1.58692L7.99673 6.42745C7.86271 6.69102 7.60841 6.87253 7.31559 6.91361L1.86179 7.6787C1.11071 7.78406 0.814446 8.71101 1.36519 9.23246L5.2785 12.9376C5.49946 13.1468 5.60053 13.4531 5.5475 13.7527L4.6176 19.007C4.48738 19.7428 5.25438 20.3106 5.9201 19.9712L10.8537 17.456C11.112 17.3243 11.4177 17.3243 11.676 17.456L16.6097 19.9712C17.2754 20.3106 18.0424 19.7428 17.9122 19.007L16.9823 13.7531C16.9293 13.4533 17.0305 13.1468 17.2518 12.9376L21.1641 9.23854C21.7151 8.71754 21.4197 7.79052 20.6688 7.68446L15.2136 6.91397C14.9211 6.87266 14.6671 6.69124 14.5333 6.42793L12.0718 1.58692Z" fill="#69B930"/>
</mask>
<g mask="url(#mask0_270_1497)">
<path d="M12.0718 1.58692C11.7362 0.927008 10.7935 0.927008 10.458 1.58692L7.99673 6.42745C7.86271 6.69102 7.60841 6.87253 7.31559 6.91361L1.86179 7.6787C1.11071 7.78406 0.814446 8.71101 1.36519 9.23246L5.2785 12.9376C5.49946 13.1468 5.60053 13.4531 5.5475 13.7527L4.6176 19.007C4.48738 19.7428 5.25438 20.3106 5.9201 19.9712L10.8537 17.456C11.112 17.3243 11.4177 17.3243 11.676 17.456L16.6097 19.9712C17.2754 20.3106 18.0424 19.7428 17.9122 19.007L16.9823 13.7531C16.9293 13.4533 17.0305 13.1468 17.2518 12.9376L21.1641 9.23854C21.7151 8.71754 21.4197 7.79052 20.6688 7.68446L15.2136 6.91397C14.9211 6.87266 14.6671 6.69124 14.5333 6.42793L12.0718 1.58692Z" fill="#EFB236"/>
</g>
</g>
<defs>
<clipPath id="clip0_270_1497">
<rect width="22.5298" height="20.7967" fill="white"/>
</clipPath>
</defs>
</svg>
